<svg xmlns="http://www.w3.org/2000/svg" viewBox="20 8 998 1824" fill="none">
  <defs>
    <filter id="glow" x="-30%" y="-30%" width="160%" height="160%">
      <feGaussianBlur stdDeviation="18" result="blur" />
      <feMerge>
        <feMergeNode in="blur" />
        <feMergeNode in="SourceGraphic" />
      </feMerge>
    </filter>
  </defs>
  <path d="M687.331,1090.478c0.719-2.988-0.278-4.387-0.479-7.292
	c-0.325-4.71,1.117-5.011-1.349-9.833c-0.21-0.411-1.292-0.93-1.702-1.689l-2.602-3.724c-0.607-0.131-1.263-0.482-1.719-0.902
	c-0.824-2.102-1.808-3.969-2.75-5.998c-0.471-1.016,0.043-2.411-0.345-3.508c-0.107-0.303-0.957-2.775-1.208-3.163
	c-0.873-1.346-1.733-1.61-1.754-3.342c-0.769-0.727-1.555-1.533-2.133-2.426c-0.135-0.853-0.492-3.579,0.114-4.282
	c-0.896-1.257-0.26-2.64-0.39-3.987c-0.195-2.018-4.418-5.199-4.781-8.36c-1.515-1.052-2.968-4.945-2.988-6.759
	c-0.003-0.303,0.943-3.137,1.04-3.673c0.351-1.937,0.023-3.488,0.023-5.35c0-0.815,1.106-2.7,1.342-3.697
	c0.504-2.135,0.552-4.507,0.76-6.689c0.09-0.95-0.167-3.675,0.263-4.466c0.763-1.402,2.444-2.504,4.059-2.464
	c2.395-1.513,2.152-6.899,0.167-8.512l-0.741-0.156l-1.004,0.345c-4.814-0.46-3.06-4.818-4.643-7.238
	c-1.192-1.822-5.121-2.458-6.224-4.274c-0.675-1.596-2.279-2.385-2.779-3.559c-0.348-0.816-0.479-1.822-0.807-2.676
	c-3.918-1.493-5.801-4.654-8.087-5.458c-1.451-0.51-3.593-0.19-5.272-0.72c-2.273-2.181-1.573-1.396-2.819-4.677
	c0.062-1.086,0.615-1.741,1.379-2.494c0.12-0.276-0.791-1.767-0.584-2.812l1.522-1.483c0.026-0.136,0.024-0.35,0.092-0.473
	c1.301-2.355,0.656-5.103,2.116-7.205c0.058-0.083-0.083-0.211-0.154-0.271c-0.804,0.029-1.872-0.488-2.628-0.706
	c-0.523-0.666-0.443-1.206-0.069-1.937c-0.599-0.715-1.167-1.298-1.972-1.811c0.273-0.631,0.862-1.336,1.417-1.737
	c0.303-1.456-2.152-8.795-3.083-10.003c0.576-0.314,1.558-1.062,1.846-1.686c-0.234-0.607-2.322-1.615-2.322-1.615l0.85-0.879
	l4.625-2.224c-0.602-0.077-1.204-0.214-1.801-0.321c-3.143-2.797-4.019-5.745-6.046-9.381c-0.033,0.018-2.431-0.401-2.828-0.379
	l-0.38-0.344c-0.101-1.972-2.227-3.147-2.323-4.528c0.175-0.37,0.28-0.908,0.164-1.311c-0.432-0.778-1.397-1.137-1.729-1.879
	c-1.364-3.046-1.354-6.162-3.073-9.057c0.23-0.413,0.081-1.261-0.109-1.656l-0.872-0.774c-0.272-2.066-1.666-4.662-2.31-6.653
	c0.207-0.353,0.399-0.748,0.804-0.916c0.165-0.484-0.603-2.513-0.777-3.052c-0.394-1.21,0.327-2.703,0.602-3.893
	c1.201-5.198,1.053-5.923,0.474-11.098c-0.187-1.671,0.51-3.689,0.554-5.44c0.032-1.284-1.869-2.535-2.211-4.478
	c-0.358-0.121-0.714-0.625-0.813-0.97c0.312-1.365,3.202-3.546,3.685-3.873c1.825,2.169,6.261,0.417,7.379,1.913
	c1.324,0.45,3.866-0.037,5.141-0.345l0.426-0.439c1.778-0.247,4.437-0.247,6.154,0.409c2.822-0.552,4.578-2.535,6.503-4.373
	c0.765-0.729,3.265-0.132,4.599-0.939c-0.708-1.204-3.009-0.71-3.589-2.288c-2.496-0.805-2.695-1.393-4.353-3.278
	c-1.134-1.29,2.688-4.269,3.602-5.319c4.455-1.09,9.295-4.312,12.917-6.988c0.886-0.655,3.506-0.802,3.93-1.994
	c0.375-1.059-0.117-2.171,0.233-3.298c0.09-0.103,0.25-0.232,0.312-0.354c1.935-3.854,4.919-7.506,5.049-12.017
	c0.399-0.228,0.709-2.482,0.981-3.059c0.589-1.244,6.309-6.575,6.958-7.188c2.404-2.267,6.818-3.004,7.834-4.549
	c0,0-0.608-2.74-1.325-4.227c0.411-1.17,0.303-3.151,0.669-3.988c0.414-0.946,1.698-1.1,2.245-2.189
	c0.85-1.696-0.387-1.74,1.082-3.724c0.269-0.363,1.075-0.999,1.004-1.517c-0.204-1.479-0.488-2.107-0.312-3.582
	c0.363-0.539,1.506-1.809,2.237-1.855l0.02-1.007c1.377-0.042,3.231-0.016,4.4-0.811l0.17-0.433
	c3.506-2.083,4.571-5.276,7.569-7.674c4.079-3.263,9.043-4.851,13.875-6.488c1.514-0.513,4.241,0.22,5.882,0.416
	c0.465,0.056,7.156-4.51,11.916-3c1.345-1.14,5.347,0.876,7.986-0.402c0.492-0.436,0.926-1.196,1.134-1.811l1.533-1.429
	c0.349-0.21,1.689-0.947,2.103-0.852l0.388,1.392c0.524,0.703,2.055,1.869,3.009,1.51c0.905-0.566,1.843-1.726,2.431-2.592
	c1.306,0.272,5.095-3.085,5.095-3.085c0.941,0.005,2.533-0.528,3.149-1.291c4.462-0.248,3.585,0.092,7.349,2.778
	c0.953,0.257,3.857-1.238,4.589-1.96c0.298-0.84-0.836-2.02-0.138-3.018l0.384-0.229l4.443,0.648l0.709,0.575
	c0.043,0.914-0.286,5.247,0.072,5.704l0.846,0.602c2.244-0.326,4.66,0.854,5.942,0.568c1.326,1.518,2.024,1.358,3.969,0.909
	c0.774,0.397,1.525,1.101,2.146,1.696l1.618,0.054c0.342-0.118,1.454-1.724,1.883-2.129c0.914-0.276,3.688,2.726,4.347,3.339
	c1.205,1.12,3.793,0.369,5.099,1.73l1.057-0.129c0.792-0.591,1.001-1.546,1.072-2.48c2.211,0.689,5.048,0.091,7.228-0.625
	c0.672,0.871,1.288,1.918,2.245,2.508c0.862,0.013,7.596-1.516,8.156-1.784c0.304-0.413,1.581-2.419,2.076-2.413l0.217-0.338
	c1.25-0.295,2.854-0.027,3.993,0.551l0.276,1.507l3.149,0.199c0,0,2.089-4.109,2.808-5.501l0.801-0.459
	c0.515,0.171,1.122,2.359,1.122,2.359c0.866,0.941,1.511,1.365,2.693,1.622c0.963-0.607,2.051-2.108,2.631-3.048
	c0.126-0.049,0.392-0.208,0.525-0.203c6.934,0.3,4.264,2.287,8.441,3.616c0.88,0.049,1.611-0.463,2.303-0.483
	c1.76-0.052,3.426,0.602,5.118-0.331l0.85,0.801c1.666,0.021,6.393,0.948,7.5,2.514l0.502,0.132
	c1.349-0.213,1.205-4.202,5.134-3.153c2.755,3.307,4.835,2.8,7.979,1.084c1.156-3.523,4.695-4.821,7.218-7.431l0.808-0.152
	c1.041,1.413,0.694,2.756,2.5,3.572l1.086,0.013c1.106-0.518,2.464-3.044,3.563-4.109l0.919-0.152
	c1.077,1.081,0.633,2.622,1.692,3.697c0,0,3.474-1.104,4.42-2.774c0.965-0.051,2.393-0.826,2.959-1.609
	c1.992-0.958,4.519,3.411,6.066,3.835c1.033-0.183,2.224-1.218,3.264-1.639l0.532,0.047c0.953,0.989,7.271,4.563,8.747,4.359
	c0.871-0.12,1.888-0.543,2.746-0.791c0.46,0.441,1.615,1.441,2.271,1.578c0.706,1.323,0.226,7.36,0.226,8.583
	c0.132,0.108,0.191,0.36,0.125,0.517c0.165,0.038,2.519,3.699,2.727,4.248c0.463,1.223-0.117,2.844,0.774,3.934
	c3.011,3.683,9.499,3.817,12.752,0.368c0.75-0.796,1.838-1.67,2.333-2.659l-0.932-1.024c0.595-1.134,0.991-3.18,1.731-4.133
	c0.554-0.713,1.224-4.518,1.224-4.518l0.299-0.538c0.32-0.331,2.549-0.983,2.549-0.983c0.466-0.053,1.278,0.168,1.594,0.541v0.169
	c0.597,0.322,1.26,0.554,1.903,0.761l0.808-0.207c0.357-1,1.546-2.202,2.358-2.828c1.263,0.139,2.583,0.927,3.852,0.625
	c0.729-0.541,1.328-1.694,2.149-1.953c0.438-1.098,1.096-2.716,2.33-3.136l0.725,0.132c0.597,1.086,1.862,2.347,3.225,2.062
	c3.081-5.667,7.926-4.087,9.462-5.62l0.403-0.957c-0.197-0.348-0.435-0.867-0.374-1.284c1.447-0.62,10.889-12.771,11.178-13.97
	c0.285-1.181,0.042-2.215,0.66-3.393c-0.131-0.885-0.658-1.944-1.201-2.643l0.032-4.562c-1.908-1.204-0.207-4.645-0.938-6.59
	c0.773-1.167,0.121-2.417,0.88-3.531c0,0-0.475-2.163-1.086-2.619c-0.338-0.731-0.532-1.82-0.42-2.623l0.66-0.733
	c-0.255-1.397-0.957-2.108-1.043-3.514c0.883-1.984,2.402-3.056,4.619-3.46l0.27-0.703c-0.085-0.443-0.37-1.422-0.299-1.842
	l-1.289-0.517l-0.453-0.639l0.02-0.811c1.171-0.915,3.405-0.717,4.865-1.565c0.614-1.682-1.277-4.806-3.067-4.775l-0.426-0.723
	c0.287-0.535,1.068-2.218,1.506-2.562c0.864-0.13,1.919,0.038,2.765,0.196c1.516-1.058,2.408-2.398,4.147-3.399l0.108-0.311
	l-0.173-0.781c-1.288-1.264-2.846-1.308-4.38-2.105c-0.052-0.366-1.148-2.528-1.371-3.004c-1.152-0.538-1.766-0.763-2.284-1.96
	c0.124-0.535,0.362-1.862,0.167-2.406c-1.379-1.106-1.839-0.323-3.356-0.578c-0.668-0.624-1.204-1.714-1.509-2.555
	c-1.168-1.192-3.262-0.675-4.541-1.683c-2.035-2.826,0.093-3.228,0.745-5.768l-0.492-1.473c0.161-2.792,8.164-11.297,10.305-12.527
	c0.949,0.148,2.445,0.574,3.182-0.287l0.381-0.73c0.04-0.402-1.48-5.935-1.689-6.438l-0.45-0.135
	c-1.301,0.928-7.577,0.848-9.541-0.088c-0.829-0.395-1.564-0.9-2.425-1.23c-0.812-0.312-0.248-2.749,0.148-3.19l2.428-2.71
	c5.199,0.125,10.133-0.961,12.063-6.171c0.631-1.702,0.002-3.276,1.008-5.096c-1.021-4.279-1.376-4.333,1.053-8.644
	c0.046-0.083,0.678-0.429,0.791-0.5c1.13-1.271,0.794-5.045,1.338-7.015c2.1-7.613-1.598-7.151-3.704-13.422
	c-1.038-0.37-5.174-2.426-5.774-3.207c-0.606-0.187-1.339-0.161-1.959-0.088c-3.11-1.954-4.055-3.789-7.42-0.28
	c-2.982,1.188-4.046-1.615-5.916-2.274l-0.049-1.869l-0.147-0.558l-0.453-0.416l-0.217-0.041c-2.794-0.553-2.547-2.641-3.257-4.947
	c-0.119-0.386-0.689-0.919-0.873-1.443c-0.897-2.558-1.831-5.075-3.205-7.421c-0.217-0.371-1.103-1.676-1.083-2.062
	c3.208-5.194,2.542-8.396,8.731-7.836c0.132,0.012,0.672-0.186,0.84-0.233l0.269-0.953c-0.917-2.925-4.051-2.799-6.633-2.899
	c-0.865-0.034-1.763-0.913-2.572-1.146c-1.311-0.378-2.701,0.052-3.951-0.142c-1.138-0.177-2.137-0.749-3.159-1.159
	c-1.763-0.708-5.858-0.844-7.818-1.155l-1.647-0.261c-3.168-1.006-6.499-2.767-9.616-4.065c-1.446-0.603-3.113-0.751-4.662-0.841
	c-2.957-2.888-3.979-3.072-4.701-3.64c-0.816-0.642-1.248-1.774-3.659-7.867c-0.201-0.509-0.517-1.509-0.376-2.068
	c1.607-6.415-1.646-6.557-5.84-10.824c-0.672-0.684-0.924-2.01-1.693-2.781c-1.744-1.749-4.502-2.393-6.473-4.129
	c-0.831-1.862-1.505-3.467-2.713-5.086c-1.285-1.723-0.002-3.942-2.651-7.201c-4.055-4.99-9.804-2.248-13.445-14.041
	c0.593-3.05,0.864-5.773,1.315-8.675c0.346-2.219,2.148-4.68,2.861-6.965l0.023-0.405c0.133-2.66-0.47-6.057-1.397-8.583
	c-0.384-1.046-1.214-2.275-1.434-3.342c-0.571-2.771,1.918-6.468,1.558-7.438c-0.339-0.914-1.062-1.76-1.388-2.677
	c-0.685-1.928-1.281-5.521-1.483-7.532c-0.217-2.165-0.103-4.367-0.334-6.586c-0.029-0.283-0.327-2.723-0.296-2.842
	c0.651-2.46,2.057-3.038,3.311-5.022c0.363-0.574,4.527-10.505,4.76-11.456c0.599-2.435,0.754-4.122,0.964-6.559
	c0.158-1.824,1.198-4.055,1.185-5.785c-0.018-2.473-0.679-7.733-1.031-10.232c-0.398-2.825,0.084-6.531-1.729-9.006
	c-1.334-1.821-3.443-3.196-4.614-4.974c-2.233-3.392-3.361-6.76-6.315-9.601c-1.343-1.292-8.323-4.615-10.239-5.809
	c-1.313-0.818-3.248-1.172-4.433-2.099c-0.902-0.706-1.388-1.963-2.527-2.45c-3.389-1.45-8.292-3.253-10.793-6.096
	c-1.19-1.353-6.073-7.692-7.09-8.06c-0.749-2.377-1.898-4.564-3.087-6.738c-5.589-10.21-8.859-4.244-13.777-12.411
	c-1.348-2.238-1.771-5.083-2.867-7.408c-1.551-3.294-2.75-5.146-5.121-7.779c-1.414-1.571-3.564-3.438-4.606-5.288
	c-1.404-2.495-4.338-4.588-5.984-7.019c-0.141-0.209-0.667-2.767-0.859-3.194c-1.759-3.882-3.265-7.992-5.754-11.412
	c-1.567-2.152-2.922-4.452-4.359-6.697c-8.271-12.919-11.956-0.059-17.433,0.445c-2.714-0.479-2.069-5.383-7.758-6.735l-0.2-0.048
	c-2.33-0.085-9.982,0.515-11.592-0.047c-0.771-0.27-3.21-2.718-3.841-3.308c-0.881-0.824-2.218-1.764-3.271-2.281
	c-4.536-2.227-5.553-1.437-8.032-2.474c-2.243-0.938-4.493-2.105-6.709-3.136c-2.017-0.938-4.08,1.133-6.059,1.129
	c-1.384-0.689-4.548-2.866-5.922-2.859c-0.076,0.061-3.496,0.573-3.731,0.622l-0.167,0.142c-1.958,1.685-5.493,1.062-7.864,1.068
	c-1.447,0.004-7.104,7.328-8.441,8.33c-0.119,0.241-0.139,0.576,0.007,0.804c0.433,0.678,1.146,2.08,1.866,2.487
	c1.956,1.107,6.581,1.465,3.327,5.038c-1.058,0.541-12.442,4.236-12.805,4.197c-0.978,0.581-2.016,1.668-2.575,2.656
	c-0.295,2.751,0.189,5.156-0.21,7.863c-0.923,1.358-2.73,2.695-4.227,3.329l-0.049,0.297c-0.714-0.224-3.328,1.318-3.717,1.511
	c-0.199,0.285-1.405,6.025-1.401,6.14c0.175,4.943,2.229,4.023-1.089,9.364c-1.139,1.833-3.252,3.892-5.502,3.863
	c-4.294-3.385-4.701-3.113-9.583-3.278c-1.379,0.91-3.092,1.373-4.577,2.112c-2.486,1.238-5.158,1.884-7.415,3.474
	c-2.227,1.569-4.151,2.323-6.562,3.288c-3.041,7.66-6.809,4.128-8.875,6.667c-0.544,0.023-1.444,0.166-1.91,0.486l-1.404,2.538
	l0.062,0.865c0.79,0.696,1.45,1.513,2.152,2.298l0.082,0.696c-0.835,3.558-6.06,0.343-7.405-0.561
	c-1.757-1.18-3.834-1.313-5.348-2.717c0.024-1.806,1.553-3.238,2.339-4.758c0.542-1.049,0.402-4.446,0.521-5.667l0.02-0.196
	c-0.281-0.854-0.356-1.644-0.578-2.467c-0.798-2.971-7.414-1.266-8.9-1.571c-1.353-0.278-2.435-0.906-3.882-0.666
	c-2.258,0.374-1.756,1.07-4.015,0.027c-3.208-1.48-5.482-2.464-8.442-4.677c-1.646-1.231-3.287-2.939-4.954-4.062
	c-3.916-2.638-6.651,0.272-11.837-5.221c-0.58-0.615-0.599-1.461-1.046-2.058c-1.548-2.065-5.265-4.199-6.552-6.231
	c-0.772-1.218-1.675-6.276-2.829-6.742c-3.924-1.583-3.544,0.127-5.462-0.287c-1.413-0.305-2.445-0.917-4.098-0.902
	c-6.865,3.557-3.428,3.284-6.713,7.931l-0.055,0.683c-0.255,0.008-1.087,0.092-1.237,0.223c-1.195,1.038-1.671,2.081-2.533,3.261
	c-0.935,1.281-3.088,2.363-4.429,3.298c-0.593,3.214-4.628,3.301-4.994,6.965c-0.853,0.647-1.9,0.614-2.722,1.098l-0.276-0.078
	c-2.682-0.742-4.649-2.185-7.155-3.24c-1.698-0.715-3.344-0.311-4.911-1.771c-2.118-0.196-3.581,6.817-3.865,8.344
	c-0.117,0.631-0.824,1.285-1.159,1.801c-0.68,1.047-0.919,3.211-1.326,4.471c-0.344,1.065,1.024,2.521,0.397,3.697l-2.041,1.804
	l-1.352-0.669c-1.448-0.354-1.868,0.592-3.133,0.933c-1.345,0.363-6.568,1.021-7.192,1.592c-1.001,1.734-0.13,3.862-2.759,4.856
	l-0.508-0.112c-0.315-0.743-0.781-1.441-1.208-2.122l-0.288,0.037l-0.66,0.595c-0.107,2.23-1.235,4.194-2.589,5.924l0.843,0.771
	c1.071,0.011,3.091,1.707,2.399,2.737c-0.93,0.037-2.386-0.826-3.013-0.547c-0.798,0.494-1.184,1.864-1.939,2.031l-1.217-0.037
	c-0.879,0.438-1.829,1.353-2.477,2.068c-0.038,0.326-0.051,0.802,0.134,1.095c-0.205,0.917-1.062,1.396-1.246,2.504l-0.315,0.101
	l-0.44-0.378l-0.127-0.369l-0.131-2.855l-0.188-0.341l-0.532-0.156l-0.584,0.541c-0.299-0.004-0.663,0.079-0.916,0.246l-1.142,1.082
	c-0.129,0.46-0.552,1.173-0.98,1.423c-1.017,0.311-4.114-0.551-4.114-0.551l-1.03,0.355l-0.594,0.764l0.442,0.324
	c0.87-0.094,2.696,0.003,3.314,0.804l0.072,0.365c-0.296,0.502-2,1-2.747,1.73c-0.093,0.816-3.145,1.468-3.458,1.899
	c-0.309,0.426-1.203,0.287-1.689,0.618c-0.712,1.782-2.71,3.485-4.796,2.977c-0.36,0.353-1.107,0.657-1.608,0.676l-0.243,0.578
	l-0.076,1.426c-1.993,0.241-1.544,2.668-3.852,2.7c-0.983,0.736-1.832,1.895-1.883,3.157c-0.216,0.301-0.994,0.973-0.994,0.973
	c-0.625,1.929-2.032,3.303-2.543,5.177c-1.871,0.379-4.348,0.177-5.721,1.247c-0.329,0.85,0.098,2.395,0.351,3.224l-0.095,0.304
	c-0.621,0.004-1.305,0.154-1.854,0.446l-0.324,0.521l0.334,0.99l-0.403,1.189l-0.322,0.267c-0.851,0.108-1.378-0.244-1.834-0.949
	l-1.105,0.077c0,0-2.436-0.549-2.717-0.727c0,0-1.864-2.187-1.88-2.321c0,0-1.195-0.594-1.883-0.335l-0.758-0.162
	c-0.651-0.871-2.027-2.94-2.027-2.94l-1.063-0.341c-0.192-0.4-0.173-0.986-0.042-1.399l-2.802-1.733l-2.458-0.102
	c-1.982-1.117-3.286-2.312-5.816-1.879l0.174-0.2c2.19-2.49,5.134-4.399,4.892-7.958c-0.047-0.689-0.535-2.499-0.246-3.139
	c0.537-1.188,1.458-2.161,1.946-3.464c-0.027-0.991-0.66-1.231-0.88-1.872c-0.187-0.545-0.139-1.258-0.286-1.825
	c-0.378-1.463-3.097-3.198-2.939-4.836c0.336-0.642,2.521-0.945,3.461-2.163l-0.004-0.784c-0.231-0.668-1.242-1.473-1.847-1.757
	l-0.039-0.561l0.656-1.098c0.852-0.479,3.232-1.386,3.603-2.021c0.674-2.755-1.134-4.388-0.84-6.928
	c0.75-1.769,5.857-3.78,7.552-4.139c1.298-1.458,2.897-3.031,3.97-4.633c1.428-2.133-1.087-6.471,5.309-8.962
	c1.343-0.523,2.77-3.037,2.373-4.562c-2.274-1.002-2.31-4.56-2.401-6.64c-0.032-0.714,0.656-1.29,0.796-1.99
	c0.154-0.769-0.159-1.803,0.056-2.653c0.478-1.894,2.083-3.242,2.209-5.244c-0.19-1.16-2.087-1.086-2.809-0.98l-0.19-0.257
	c0.493-1.773-0.517-3.651-2.018-4.562l-0.017-0.476l1.244-1.612c0.146-0.614-0.545-1.752-0.66-2.48
	c1.217-3.156,3.133-3.137,3.59-3.92c0.068-0.257,0.165-0.564,0.138-0.835l-0.817-1.142c-0.979-0.537-2.379-0.9-3.495-0.916
	c-1.746-1.306-4.68-3.627-6.935-3.755c-0.565-0.526-1.046-1.958-0.998-2.687c-0.212-0.554-1.065-1.133-1.611-1.277
	c-0.17-0.832-1.153-1.105-1.365-1.885c0.253-2.986,2.417-4.792,4.613-6.603c-0.617-1.508,0.838-4.193,1.588-5.377
	c1.639,0.229,2.276,0.392,3.822-0.362l1.525-2.359c0.952-0.45,3.295-0.963,3.806-1.564c-0.057-0.518,0.047-1.144,0.279-1.612
	c-0.425-1.012-0.437-3.228-0.407-4.292c0.805-0.718,3.889-0.739,6.68-3.321c1.146-1.062,1.996-5.371,3.609-6.012
	c0.17-1.392-3.121-2.981-4.229-3.095l-0.167-0.199c0,0-1.067-1.849-1.07-2.214l1.474-1.467c-0.057-0.647,0.016-1.352,0.174-1.98
	c2.352-1.996,0.726-3.866,1.762-6.069c-0.388-0.712-0.791-1.667-0.863-2.487c1.497-2.532,0.812-4.872,0.184-7.546l0.502-0.514
	c0.837,0.131,2.389-1.757,2.838-2.264l0.154-1.281c3.929-3.438,1.199-3.086,2.257-6.363c1.271-0.496,1.141-1.973,2.198-2.646
	l1.627-0.003c0.776-0.163,2.555-4.72,2.746-5.539c0.035-0.87-2.868-3.443-3.441-3.906l-0.459,0.041
	c-2.178-1.361-3.169-3.763-5.893-4.153c-3.176-3.708-0.378-3.736-2.631-7.911c0.794-1.877,1.122-5.643,0.755-7.61
	c-0.173-0.929-1.176-2.186-1.441-3.23c-0.153-0.605-0.038-1.379-0.223-1.967c-0.845-2.695-1.938-2.753,0.01-5.731
	c0.207-3.004-4.582-0.868-4.561-4.082l0.022-3.437l0.739-0.706c-0.466-2.098,1.034-3.05,0.948-4.67l-1.1-2.382l1.155-2.061
	l1.056,0.003l0.906-0.534c1.158,0.105,1.575,0.207,1.98,0.17c0.39-0.035,0.768-0.199,1.783-0.613
	c0.592-0.515,0.529-2.488,0.417-3.149c0.646-0.552,1.309-1.237,1.726-1.987c0.072-0.549-0.538-1.831-0.787-2.291
	c0.214-1.371,0.349-1.828,0.932-3.132c0.044-0.449-0.51-0.713-0.712-1.027c-2.414-3.756-2.235-1.176-4.019-3.281l-2.668,0.088
	l-0.649-0.385l-0.604,0.152c-0.52,0.247-0.893,1.602-0.955,2.095c-0.735,0.722-7.825,1.354-9.613,1.392l-0.856-0.95
	c-0.715-0.291-1.56-0.487-2.336-0.487c-0.242-1.037-0.69-1.476-1.453-2.085l-0.919,0.03c-0.746-0.472-5.871-5.162-6.938-2.578
	c-1.459,0.121-3.839-0.532-4.997,0.385c-0.409-0.193-9.061-1.156-9.223-1.129l-0.55,0.321c0.111,2.479-6.374,9.324-7.841,11.358
	c-0.524,0.669-5.854,5.414-6.572,5.495c-0.591-0.976-0.633-2.038-1.696-2.761c-2.16-1.469-11.672-4.54-12.359-5.339
	c-0.328,0.088-0.84,0.065-1.113-0.169c-0.912,0.109-1.962,0.533-2.75,0.99c-0.443,1.213-1.319,2.071-1.808,3.139
	c-0.464,1.015-1.088,3.784-3.107,2.686c-0.95-0.516-2.955-1.552-3.602-2.332c-4.906-0.404-3.713-2.449-6.448-2.882l-0.606-0.936
	c-0.175-0.875,0.766-4.433,0.121-5.451c-1.291-2.037-3.671-2.979-4.907-4.964c0.299-4.026-1.409-3.238-1.585-5.045
	c0.124-1.258,1.021-1.924,1.401-3.068l-0.446-1.463c-1.327-1.165-2.538-2.195-3.514-3.643c-0.777-4.211,2.973-4.663,4.101-7.529
	c0.649-1.651,0.337-3.604,1.542-5.076c1.293-1.579,4.799-1.451,5.501-3.944l0.292-0.186c0.262-0.697,1.708-2.97,1.679-3.619
	c-0.052-1.188-0.563-2.312-0.278-3.531c0.242-1.033,1.381-3.191,1.375-4.049c3.003-7.4,5.15-15.449,5.819-23.391l-2.942-0.037
	c-1.739,0.56-1.724,2.869-2.809,3.535l-0.63-0.017c-2.396-1.79-3.891-4.09-5.998-6.096c-0.481-0.238-1.345-0.246-1.854-0.128
	l-0.606-0.882c0.297-0.423-0.042-2.741-0.253-3.278c-1.076-0.639-2.996-1.915-3.756-2.801c-0.138-0.161-0.438-0.839-0.536-1.054
	c-0.929-2.065-1.99-3.621-3.117-5.59c-1.007-1.759,0.007-5.141-2.746-5.518c-0.289-0.802-0.445-1.679-0.558-2.521
	c-1.965-2.537-9.576-4.844-11.657-2.444c-0.777,0.897-0.762,1.692-1.27,2.66c-0.483,0.92-2.292,0.944-2.783,2.562
	c0.047,1.384,0.455,2.868-0.426,4.089c-1.036,1.294-4.629,0.507-6.112,2.294c-0.529,1.004,1.474,4.537,1.109,5.596l-0.591,0.906
	c-0.828,0.651-3.29,0.201-4.219,0.017c-3.734-0.741-5.723-1.272-4.957-5.448c0.137-0.747,0.589-1.388,0.561-2.19
	c-0.084-2.366-1.229-4.061-1.532-6.4l-0.984-0.24c0,0,0.059-1.88-0.089-2.126l-0.869-0.862c-0.26-0.144-1.113-1.619-1.113-1.619
	l-2.257,0.503l-1.656,0.744c-0.403-0.15-0.817-0.301-1.198-0.503l-1.085-1.396c-0.256-0.461-0.49-1.093-0.45-1.632
	c-0.738,0.094-1.45-0.412-2.083-0.72c0.238-1.051,0.117-1.128-0.436-2.024l-0.438-0.01c-0.315-0.123-0.327-0.545-0.328-0.828
	l-1.69-2.359c-1.178,0.082-0.458,0.455-1.427,1.156c-1.59,1.15-6.483,1.468-8.598,1.406c-1.097,1.021-4.097,4.427-4.594,5.687
	c-0.287,0.728-0.004,1.666-0.17,2.345c-0.175,0.716-2.658,3.938-3.209,4.346c-5.16,3.817-7.972-3.521-11.987,2.034
	c-1.526,0.218-3.021,1.254-4.538,0.967c-1.441-0.273-3.345-2.297-4.442-2.19c-0.248,0.166-1.909,0.911-2.264,0.811
	c-1.914-0.537-3.963-1.274-5.797-1.997c-0.74-0.292-1.549-1.058-2.3-1.25c-1.252-0.321-2.198-0.306-3.462-0.909
	c-1.217-0.581-3.222-2.095-4.383-2.852c-0.383-0.25-2.021-1.051-2.388-0.561c-0.202,0.642-0.939,2.623-0.65,3.031
	c0.741,0.986,2.664,1.972,3.779,2.369c2.746,3.777,1.828,2.966,2.52,7.205c0.236,1.448,0.694,2.605,0.801,4.123
	c0.034,0.485-0.071,0.962-0.227,1.426c0.219,0.684,3.938,3.587,4.633,3.866c1.443,1.691-2.077,5.81-2.264,7.728
	c-0.497-0.159-1.78-0.419-2.297-0.186c-1.191,1.11-2.454,2.854-3.024,4.383c-2.511,0.004-3.914,2.078-6.306,2.139
	c-0.402,1.082-6.905,0.986-8.038,0.963c-2.242-0.045-3.336,2.927-6.166,2.288c-1.91-0.432-5.169-4.344-6.092-4.251
	c-0.28-0.595-1.267-1.333-1.804-1.655c-1.077,0.201-1.981-0.727-3.094-0.477l-1.158-1.058c-1.101,0.001-2.301,0.298-3.365,0.247
	c-2.569-0.125-4.077-0.499-6.494,1.338l-0.246,1.027c-2.083,1.313-6.143,0.862-7.021,2.085l0.075,2.156
	c-2.651,3.305-3.53,4.962-1.834,8.996l-1.463-0.024c-1.555,2.872-2.054,3.359,0.319,6.126l-0.201,1.48l-2.102,0.409
	c-0.261,1.402,0.572,3.046,0.492,4.565l0.84,1.105c0.114,1.3,0.174,3.727-0.352,4.971c-0.513,1.214-3.069,4.745-3.231,5.759
	c-0.17,1.063,0.487,1.62-0.476,2.565c-4.722-1.146-6.643-0.255-9.327,3.785l-0.771-0.068c-1.072-0.62-1.121-2.28-2.01-2.997
	c-1.94-1.566-5.042-3.052-6.395-5.109c-0.747-0.014-0.939-0.138-1.552,0.169c-3.111,4.969-4.555,3.919-6.529,6.356
	c-2.289,0.892-4.614-0.041-6.788-0.416c-1.087-0.187-4.737,1.199-6.188,1.527l-1.02,1.159c-0.74,0.21-1.557,0.368-2.329,0.355
	c-0.934,0.617-1.074,1.997-1.28,3.028c-1.116,0.718-3.614-0.325-5.073,0.064c-1.099,0.555-2.235,3.403-2.362,4.552l-2.973-2.42
	c-1.093-0.89-1.911-1.911-3.081-2.785c0,0-1.885,0.63-2.139,1.062c-1.328,0.302-2.289,0.968-3.405,1.683
	c-1.322-0.159-5.058-0.431-6.161-0.03l-1.677-0.973c-1.525-0.025-2.337,0.194-3.485,1.24c-1.543-0.27-5.326-1.044-6.67-0.48
	c-0.663,0.278-1.274,1.112-1.938,1.372c-1.598,0.626-3.79-0.438-5.253,0.686c-1.984-0.034-2.908-2.519-1.835-4.048
	c-0.114-0.482-1.272-1.503-1.64-1.808c-3.578-0.015-4.27-3.177-6.437-5.282c-1.165,0.1-3.031-0.662-3.764-1.584l-1.23-0.098
	l-2.106,1.095l-0.66-0.064c-0.325-0.172-1.162-1.132-1.162-1.132c-0.354-0.921-1.215-2.234-2.057-2.792l-2.185,0.449
	c-0.668-0.311-1.015-0.511-1.716-0.551c-0.278,1.345-1.443,7.845-1.227,8.986l-0.758,0.997c-0.109,0.343,0.898,7.815,1.733,8.435
	c-1.898,3.874-4.063,1.694-6.5,2.135c-1.943,0.777-0.911,3.318-1.919,4.646c-0.565,0.601-1.896,0.285-2.608,0.473
	c-1.348,0.357-2.765,0.993-4.085,1.467c-2.229,0.801-4.165-0.01-6.086,1.443c-0.211,0.769-0.031,1.515-0.167,2.237
	c-0.67,3.561-0.075,4.189,2.937,6.039l0.104,0.814l-1.263,0.375c-0.126,0.533-1.214,2.215-1.827,2.163
	c-1.352,2.041-3.433,3.355-4.722,5.346c-0.478,0.739-1.251,2.916-2.066,3.362c-0.647,0.354-1.545,0.601-2.241,0.872l0.104,0.754
	l1.595,0.828l0.588,1.041l-0.371,2.568c-0.027,0.189,3.687,5.691,4.19,6.471c0.222,0.345,0.213,0.652,0.59,0.956
	c-0.512,0.596-1.168,1.099-1.788,1.575c-0.877,0.102-2.579,0.207-3.429-0.145c-0.424,0.049-1.192,1.166-1.388,1.494l0.304,0.926
	c1.434,0.7,5.642,5.014,5.902,6.38c-0.456,1.244,0.038,10.909-0.777,13.69c-0.57,0.719-1.589,0.937-2.464,0.838
	c-0.906,0.595-1.211,1.554-2.306,2.075c-0.819,0.389-1.812,0.382-2.635,0.838l-0.226,2.349c-0.22,0.394-0.827,1.097-1.296,1.217
	l-0.942-0.068c-0.458,0.17-0.928,0.579-1.178,0.997c0.236,1.919-0.553,4.359-0.273,6.704c-0.378,0.847-2.466,1.469-3.32,1.338
	l-0.266,0.835c-1.052,1.155-2.935,0.641-4.095,1.554c-0.122,0.737-0.095,1.603,0.122,2.321c0.363,0.203,0.833,0.341,1.25,0.348
	c2.322,1.579,3.188,4.745,6.562,5.289c0.73,1.513,0.447,3.273,1.118,4.595l-0.64,1.477l0.07,1.453
	c3.167,4.641-0.251,10.674,3.599,15.436c-1.116,1.803,0.706,13.105-0.916,13.967l-0.542,0.219c-0.815-0.063-3.533-0.867-4.005-0.656
	c-2.808,1.259-3.244,1.804-6.575,0.27c-1.698,0.436-3.146,1.933-4.543,2.028c-0.686,0.047-1.185-0.283-1.909,0.122
	c-0.28,0.436-0.076,1.6,0.066,2.041c-0.093,0.274-6.941,2.289-7.783,2.112c-1.005,0.758-1.315,3.645-2.172,4.173
	c-1.552-0.677-2.477-0.045-3.579-0.422l-1.493-1.551c-1.234-0.48-4.301,1.998-5.219,1.747c-0.83-0.502-2.384-5.06-2.481-6.059
	c-0.948-0.872-2.127-1.461-2.939-2.48c-1.052,0.376-2.973,0.938-3.869-0.088c-0.666-1.363,0.336-4.906-1.096-2.957
	c-2.485,3.384-1.389,6.954,2.71,8.408c1.646,1.81,1.484,5.581,2.805,7.685c1.233,1.963,2.077,3.159,3.103,5.336
	c0.086,0.183,0.461,0.878,0.588,1.01c0.543,0.568,1.156,0.773,1.643,1.458c0.132,0.186,0.429,0.729,0.436,0.965
	c0.038,1.256-0.558,2.542-0.971,3.707c0.076,0.326,0.589,2.772,0.683,2.913c0.488,0.73,4.136,5.559,5.335,6.225
	c0.245,0.556,0.767,1.395,1.289,1.744c4.326,1.069,5.513-6.369,6.335-8.823c0.771,1.088,7.063-0.272,9.763,6.011
	c0.916,2.131-2.973,4.046-3.287,5.657c-0.397,2.039,2.162,4.635,3.321,5.968c1.773,2.039,1.64,2.149,3.924,3.619
	c1.378,2.224,0.575,3.717,0.676,6.103c2.563,3.918,1.338,2.656,0.591,5.941l0.649,0.899c0.29-0.24,0.766-0.508,1.161-0.473
	c1.357,1.235,2.227,3.807,3.074,5.315l-0.252,0.568c1.382,2.714,2.501,4.394,1.48,7.411c-0.557,0.581-2.089,1.349-2.904,1.271
	c-0.743,0.589-1.677,1.361-2.25,2.088c-0.366,0.465-2.144,6.171-2.057,6.806c0.935,1.664,2.005,3.039,2.162,4.968
	c0.065,0.796,0.493,1.512,1.283,1.845l1.64,0.071c0.414,1.912,2.403,2.797,2.776,4.92l0.338,0.253l1.444,0.101
	c0.767,0.835,1.055,1.254,2.07,1.977c0,0-0.563,1.145-0.948,1.389c-0.381,1.706-0.09,2.449,1.092,3.474
	c0.032,0.112,0.056,0.393,0.134,0.476c1.147,1.222,1.643,2.759,2.615,3.886c3.625,4.202,8.108,7.086,12.176,10.726
	c1.447,1.295,1.186,3.168,2.713,4.613c0.076,0.346,0.14,0.736,0.101,1.092c0.33,0.457,0.999,0.733,1.397,1.189
	c2.017,0.146,4.007,0.436,3.977,2.896c0.622-0.013,2.186-0.038,2.766,0.199c2.524,3.457,4.119,5.918,7.661,8.421
	c0.082,0.058-0.095,0.696-0.095,0.696l-0.968,0.548c0.33,0.772,1.294,1.178,1.871,1.727c1.024,0.973,1.332,2.584,2.274,3.355
	l0.824-0.439c0.594-0.024,1.886,0.816,2.329,1.149l1.024,1.325c-0.564,1.619-2.96,4.45-0.502,6.029l0.96-0.071l0.558,0.426
	c0.167,0.534,0.575,1.638,1.017,2.024c0.103,0.356,0.161,0.883-0.016,1.23c1.192,0.135,3.587,2.16,3.733,3.484
	c0.864,0.926,2.783,0.95,3.95,1.896c0.884,0.716,1.058,3.552,3.622,3.149l0.971-0.798l0.531,0.372
	c-0.384,0.873,0.092,3.575,0.092,3.575l2.126,1.119l1.604,2.061l-0.147,0.473c-0.275,0.183-0.813,0.63-0.86,0.993l0.302,0.588
	c0.608-0.13,1.916,2.152,1.916,2.152c-0.363,0.742-0.631,1.561-0.824,2.362l0.462,1.01l0.775-0.743
	c0.03-0.3,0.198-1.162,0.495-1.335l0.286-0.078c0.269,0.459,2.011,1.883,2.507,2.018c-0.06,0.653-1.168,2.629-0.663,3.007
	c-0.029,1.53,2.628,4.991,4.046,4.663l1.552-0.142c0.768-0.401,2.488-1.237,3.373-1.321l2.218,0.507
	c0.754,1.462,1.855,1.923,3.32,2.143l0.299,0.73c-0.159,0.18,0.961,0.822,1.562,1.085c0.924,0.766-0.649,2.617-0.331,3.207
	c0.165,0.295,0.765,0.531,1.06,0.632c0.439-0.229,1.02-0.473,1.529-0.453l0.898,1.858c0,0,1.459,2.667,1.703,2.873
	c0.457,0.118-0.109,1.408-0.988,1.913c-0.113,0.159-0.1,0.437-0.04,0.612l0.778,0.767l1.463,0.105l0.105,0.365l-0.384,1.196
	l0.357,0.537l0.532,0.145c0.069-0.517,0.993-0.912,1.451-0.841c0.041,0.683,1.125,2.223,1.45,2.646l0.751,4.004l-2.333-1.933
	l-1.093-0.24l-1.016,1.994c-0.692,0.482-0.515,1.899-1.168,2.663c0.017,0.365,0.754,0.936,1.024,1.105
	c1.917-0.382,5.229,1.98,5.229,1.98l-0.515,0.717c-0.958-0.089-1.827,1.534-1.827,1.534l-0.292,0.723l-0.535,0.101l-1.582,0.284
	l-1.712-0.081c-0.281,0.111-0.514,0.455-0.63,0.717c0.506,1.911-0.727,2.054-0.932,3.866l-1.297,0.179l-0.062,0.304l-0.282,1.923
	c0.257,0.6,2.589,1.686,2.589,1.686s1.164,0.152,1.404,0.132L165.51,475l2.015,0.699c0.622,1.909-0.249,3.985-0.207,5.886
	c0,0,2.096,0.891,3.13,1.22l0.508-0.186c0.982,0.104,2.219,1.039,2.963,0.993c0.237,0.291,0.796,1.034,0.79,1.437
	c-0.146,0.267-0.427,0.942-0.272,1.254l0.578,0.875l0.558,0.203c0.158,0.52,0.351,1.007,0.594,1.49l-1.434,1.764l-0.118,0.5
	l0.37,1.206l1.926,2.514c0.43,0.309,4.908,6.626,5.024,7.144c0.464-0.084,1.015,0.024,1.456,0.162l0.692,0.683
	c0,0,0.461,1.413,0.505,1.683c-0.369,1.882-2.613,3.065-2.277,5.376c0.426,0.637,1.484,1.668,2.271,1.852l-0.545,0.689
	c0.507,0.909,0.13,2.581,1.099,3.031c0.125,0.362-0.538,2.031-0.538,2.031c0.423,0.19,0.909,0.549,1.135,0.966
	c0.081,0.707,0.285,3.048,0.285,3.048c0.357,0.863,1.086,5.542,1.086,5.542l1.08-0.902c0.239,0.38,1.033,1.295,1.548,1.308
	c0.454-0.812,2.919-5.143,2.919-5.143c0.293-0.465,0.482-1.456,0.23-1.977c0.065-0.538,1.304-1.174,1.761-1.365l0.292-0.639
	c0.659-0.516,2.665,0.428,3.006-0.311l0.449-0.078c0.927-0.656,0.949-2.442,1.283-2.687c0.914-0.001,2.751-1.438,3.347-2.007
	c-0.023-1.582,1.763-2.695,1.801-3.599c-0.07-0.394-0.768-2.315-0.768-2.315c0.452-0.52,3.332-0.705,4.022-0.324l2.103,0.175
	c0.669,1.148,4.575,3.899,4.472,4.373c-0.253,1.168-0.214,2.632-0.512,3.704c-0.464,1.667-1.426,3.177-1.769,4.91
	c0.035,0.465,1.079,1.159,1.434,1.338c0.172,1.138-0.961,4.927-1.22,5.866c-0.822,0.854-4.179,2.755-5.243,3.15
	c-1.193,1.197,0.676,5.272,0.308,6.677c-0.16,0.613-0.689,1.244-0.817,1.855c-0.229,1.089,0.257,2.308-0.505,3.312
	c-2.375,1.242-3.138,3.187-6.165,3.359l-0.918-0.433c-0.468-0.518-0.828-1.402-0.945-2.082c-0.468-0.108-1.41,0.431-1.748,0.696
	c-1.373-0.034-3.738-0.576-4.954-0.412c-0.155-0.486-1.935-1.25-2.389-1.487c-0.809,0.175-4.402,1.42-4.934,2.041
	c0.528,0.736,1.112,1.813,1.243,2.727c-0.226,1.005-0.469,1.248-1.26,1.822l-1.152,1.936c-0.75,0.061-1.766,0.002-2.332,0.578
	c-0.002,1.137-0.636,1.703-1.579,2.207l-0.892-0.095l-0.626-1.071c-1.378-0.034-2.423-0.421-3.658-0.919
	c-0.634,0.102-1.678,2.237-1.532,3.072c0.301,0.342,1.774,1.821,1.732,2.23c0.379,0.384,1.151,0.793,1.697,0.834
	c0.295,0.692,1.286,1.707,1.818,2.207c0.118,1.554,1.643,3.458,1.574,4.129l-0.256,0.554c-2.436,0.927-3,4.229-3.337,6.492
	c0.836,1.297,1.794,2.846,1.799,4.45l1.2,0.453c0.018,0.217,0.151,1.151,0.108,1.314c-0.494,1.889-2.049,3.965-2.832,5.823
	c-0.659,1.564-4.134,13.763-3.573,15.541c0.229,0.727,0.905,1.698,1.273,2.389c1.252,2.35-0.92,5.507-1.296,7.752
	c0.76,1.528,0.355,2.866,0.872,4.42c0.557,1.675,1.876,3.209,2.159,4.9c0.667,3.987,1.246,16.06-0.206,19.394
	c-0.554,1.271-2.317,2.919-2.537,4.011c-0.248,0.028-0.57-0.119-0.725-0.311c0.589-3.612-1.292-4.403-4.561-4.833
	c-0.484-0.717-1.674-1.652-2.563-1.771l-0.728,0.162c-0.064,0.383-1.601,1.335-1.601,1.335c-0.271,0.479-3.339,1.899-4.005,2.159
	l-1.506-0.51c-0.446,0.228-0.951,1.185-1.125,1.615c0.012,0.691,0.211,1.962,0.633,2.548c0.023,0.39-1.544,1.332-1.544,1.332
	c-0.336,0.517-0.291,0.785-0.868,1.075c0.589,0.039,1.284,1.156,1.668,1.696l0.716,2.855l-0.342,1.004
	c-0.452,0.339-0.927,0.607-1.208,1.112c-1.601-0.705-4.359-3.629-5.512-4.971c-3.891,0.696-4.255-2.548-7.201-2.187l-0.423,1.592
	c0.484,0.624,0.891,1.645,0.938,2.437c-0.352,0.69-1.754,1.568-2.408,1.889l-1.657,1.727l-0.616,1.227
	c-1.394,0.252-2.8,1.012-3.671,2.139l-1.673-0.091c-0.439-0.616-1.002-1.266-1.644-1.683c-0.612,2.115-1.083,2.866,0.879,4.531
	c-0.001,2.046-0.158,3.112-1.079,5.055c-0.545,0.31-1.064,0.851-1.375,1.392c0.679,1.572-1.542,3.294,0.446,8.33l0.666,0.564
	l1.815,0.314c0.036,1.717,2.155,1.872,1.968,3.923c-2.521,1.78-3.368,5.875-1.118,8.296c0.502,0.54,1.146,0.505,1.502,1.49
	l0.158,2.518l0.699,0.169c0.423,0.293,0.674,2.597,0.768,3.136c-1.113,1.739-0.801,3.568-1.243,4.383
	c0.645,0.257,1.779,0.872,2.198,1.463l0.578,2.325c0.156,0.628-1.396,1.371-1.431,2.146c-0.05,1.1,0.808,2.989,2.11,3.001
	c1.278,1.008,1.579,2.769,3.025,3.903c0.15,0.812,0.301,4.18,1.49,4.285c-0.004,0.393,2.872,3.463,3.333,3.565l0.837-0.024
	c0.309,0.289,1.417,1.264,1.417,1.264c1.023,1.813,1.679,3.635,3.576,4.66l0.358,0.784c1.15,0.249,2.661,2.19,4.078,2.785
	c-0.015,0.333,1.264,1.578,1.532,2.108l-0.03,0.253c1.083,0.873,1.451,2.728,2.831,3.062l0.66,2.213
	c-0.224,0.488-0.508,1.492-0.374,2.041c0.468,0.391,1.162,2.187,1.162,2.187c0.396-0.124,2.847-0.713,2.847-0.713
	c0.42,0.779,0.356,1.975,0.683,2.855l0.498,0.311c0.553,1.144,0.688,2.542,1.181,3.755c0.629,1.547,1.755,2.851,2.46,4.406
	l1.333,0.649c0.226,0.959,0.399,2.181,1.352,2.693c0.197,2,0.649,4.292,2.342,5.579c0.691-0.004,1.863-0.305,2.477-0.156
	c0.107,0.385-0.156,1.01-0.368,1.315c0.011,1.064,0.412,4.183,1.09,5.042c0.906,0.628,1.999,0.849,3.087,0.771
	c1.752,0.996,3.062,2.09,4.912,3.024c1.557,3.785,3.688,1.007,5.309,1.484c0.847,0.695,0.356,1.642,1.798,2.108
	c0.388,0.719,0.114,1.567,0.21,2.325c0.07,0.556,1.884,1.787,2.323,2.727l1.004-0.021c1.388,1.28,3.49,2.757,5.073,3.835
	c1.346,0.917,2.531,1.976,4.048,2.629c0.541,0.233,1.323,0.175,1.775,0.625c0.585,0.583,0.812,1.237,1.716,1.494
	c0.276,0.481,0.569,1.09,0.604,1.656l0.801,1.152c0.284,0.327,1.307,0.418,1.692,0.402c1.304,1.497,4.108,0.942,5.66,2.724
	l1.702-0.494c0.42,1.064,0.874,2.128,1.397,3.146c-0.796,2.399,0.746,5.828,3.111,6.742c0.152,0.394,0.317,1.084,0.174,1.507
	c1.201,1.266,2.355,2.589,1.919,4.518c0.474,0.667,0.968,1.623,1.096,2.443c0.117,0.083,3.342,1.305,3.523,1.338
	c1.523,1.577,1.908,4.065,3.438,5.37c0.921,0.357,2.451,0.71,3.337,0.054c0.299,1.094,0.442,4.409-0.535,5.062
	c-0.206,0.622-0.052,1.677,0.18,2.268c0.196,0.297,0.76,0.868,1.159,0.875c0.469,1.417,0.968,3.159,0.138,4.535
	c0.131,0.825,0.359,2.169,1.062,2.751c1.448-0.142,1.984,1.435,3.187,1.534c0.408,0.659,0.154,1.531,0.567,2.328
	c0.56,1.081,1.468,1.657,1.647,2.98c0.09,0.663-0.252,2.07-0.046,2.49l-0.62,1.143c0.114,1.833,0.835,7.002,0.108,8.259
	c0.114,0.684,0.664,3.595,1.057,4.065c-0.091,0.278-0.706,0.511-0.949,0.581c-0.23,0.337-0.395,1.059-0.232,1.453
	c0.227,0.254,0.628,0.457,0.968,0.483c0.115,0.58,1.289,1.744,1.706,2.112c0.073,2.324-0.903,5.997,1.45,7.316
	c0.422,0.84,0.161,1.939,0.759,2.667l-1.011,1.334c-0.295,1.257,1.392,3.896,1.244,4.91c-0.079,0.539-0.432,1.051-0.486,1.592
	c-0.098,0.985,0.394,2.093-0.213,3.021c0.578,1.466,0.346,3.971-0.013,5.488l-1.256,1.139l0.127,1.818
	c0.001,0.338-0.514,1.983-0.514,1.983c0.585,0.717,1.373,1.347,2.152,1.838c0.173,0.402,0.393,1.274,0.21,1.71l-1.086,0.551
	l0.844,2.329l-0.315,1.453l0.575,1.152l-0.788,1.172c-2.54-0.495-9.901-1.324-9.252,2.727l-0.948,0.835
	c0.235,0.673,1.216,1.081,1.88,1.021c0.281,0.583,0.61,1.177,1.014,1.686c-0.125,0.297-0.455,0.628-0.78,0.696
	c-0.28,0.74-0.865,4.536-0.617,5.004c-0.59,1.104-1.919,2.303-2.904,3.031l-0.17,0.754c0.53,1.965,2.524,3.023,3.487,4.646
	c0.43,0.156,0.999,0.341,1.467,0.263c0.828,0.803,1.68,1.112,2.651,1.643c0.198,0.775,0.848,2.131,1.532,2.616l1.24,0.905
	c-0.069,1.005,0.346,2.326,0.808,3.2l-0.171,0.753c-0.518,0.534-3.825,2.255-3.015,3.335c2.784,1.571,1.752,4.35,2.189,7.803
	c0.07,0.551,0.314,1.172,0.459,1.71c6.61,5.706,3.503,13.818,6.479,15.285c0.586-0.001,1.25-0.278,1.775-0.267
	c1.211,0.026,2.018,0.937,2.871,0.919c1.204,1.603,0.738,3.926,1.867,5.559l1.02,0.679c4.87-0.086,4.808,6.933,11.459,6.705
	c1.032,1.062,2.131,2.5,3.321,3.362l0.289,2.187l-0.751,0.582l-1.287,1.669l0.65,1.575c-0.055,1.176-1.019,1.435-0.466,3.132
	l-0.226,0.642l0.348,1.568c-0.23,0.613-1.142,1.283-1.726,1.5c-1.235,1.276,0.397,3.472,1.43,4.184l0.404,1.544
	c0.668,0.335,1.284,2.33,2.271,3.21l-0.234,1.23c1.588,2.073-1.655,2.509-0.068,5.238l-0.364,0.584
	c-0.092,0.572,0.824,2.23,1.112,2.697l-0.152,1.595l0.962,0.679c0.233,0.627,1.011,2.609,1.496,3.069
	c0.466,0.125,1.708,0.645,1.899,1.162c0.103,0.828-0.358,3.692-0.728,4.336c0.178,2.604,4.437,6.348,1.171,9.083l-1.355,0.183
	c-1.053,0.631-0.47,3.365,0.105,4.146l0.551,0.23c1.241-0.416,4.955-3.952,6.424-2.129c0.375-0.087,1.767-0.492,1.943-0.879
	c0.749-0.04,1.885,0.383,2.451,0.865l0.075,0.615c-0.403,0.592-1.187,1.14-1.808,1.467c0.264,1.156-0.16,2.706,0.164,3.67
	c-0.311,0.805-1.097,1.726-1.814,2.196c0.161,0.801-0.494,2.083-1.07,2.595c1.009,1.666,0.904,3.259,1.194,5.062
	c1.344,0.914,4.633,0.088,5.082,2.176c0.199,0.926,0.271,1.775,0.614,2.717l-0.282,2.487l-1.063,0.713
	c-0.601,0.729-0.203,2.854-0.016,3.768l-0.712,0.896c-0.021,0.211,1.37,3.892,1.574,4.312c1.629-0.361,2.361,1.319,3.353,2.166
	l0.171,1.615c0.93,0.966,2.948,1.534,4.239,1.453l0.702,1.44c-0.317,0.293-1,0.945-1.421,1.071
	c-0.807,2.016-0.574,4.712-1.617,6.451c0.767,1.651-0.796,3.775-1.965,4.836l-1.778,1.788c-0.733,1.071-1.75,1.945-2.664,2.859
	l0.351,0.541l-0.006,1.973c-0.454,0.462-0.861,0.919-1.421,1.251c-0.344,0.92-0.51,1.491-1.07,2.328
	c-1.11,0.205-3.444,0.605-4.495,0.345l-0.843-1.268c-0.61-0.444-1.907,0.092-2.487,0.341c-0.768,0.331-1.784,0.642-2.49,1.014
	c-0.215,0.113-1.819,3.605-1.851,3.96c-0.116,1.279,0.307,1.516,0.643,2.555c0.202,0.625-0.52,1.255-0.266,2.041l0.872,0.99
	c0.264,0.87-1.21,3.488-1.21,3.488c-0.568,0.62-1.009,1.802-1.208,2.595l-1.391,1.724c0,0-1.41-0.083-1.762,0.014
	c-0.702,0.273-1.613,1.182-1.808,1.916l-1.545,0.294c-0.467,2.69,1.477,6.849,0.508,8.995c-0.07,0.064-0.187,0.216-0.275,0.25
	c-1.4,0.544-3.578,1.521-4.702,2.535c-0.719,0.649-1.098,1.669-1.946,2.338c-0.107,0.449,0.268,1.251,0.512,1.599l-0.61,0.331
	c-0.542-0.196-1.308-0.435-1.897-0.378c-0.42,0.797-0.894,1.604-1.204,2.453c0.117,0.235,0.772,1.39,0.788,1.575
	c0.466,5.529-7.065,7.476-7.014,10.361c0.13,7.368-6.646,8.938-3.419,12.324l-0.502,0.946c0,0-2.732,1.487-3.311,1.348
	c-1.875,2.309-3.213,3.188-3.867,6.522c-0.916,0.417-1.837,0.946-2.625,1.575c-0.815-0.02-1.641-0.088-2.451,0.037
	c-0.377,0.409-1.503,1.343-2.126,1.301l-0.922,2.125l-0.706,0.01c-0.345,2.819-0.16,4.934-3.13,6.286
	c-0.311,0.074-2.711-1.545-2.963-1.423c-0.745-0.317-1.458-0.688-2.248-0.855c-1.727,0.363-1.385,3.694-2.838,4.822l0.567,3.271
	l1.165,1.335l-0.072,2.605l-0.17,1.007l-1.687,1.332l-0.204,1.939c-0.963,0.131-2.104-0.357-2.969,0.054
	c-0.235,0.463-1.082,1.922-1.608,2.115c-0.413,0.079-2.064,0.327-2.421,0.068l-0.432-0.73l-1.293-0.378
	c-1.688,0.387-2.056,4.017-2.667,5.373l-1.434,0.716c-0.255,0.051-0.769-0.317-0.958-0.456l-0.876-0.76
	c-0.316,0.381-1.259,1.169-1.821,1.078c-0.469,0.899-5.725,7.027-5.895,7.042l-1.109,1.223c0.005,0.591-0.736,1.841-1.224,2.176
	l-1.132,0.943l-0.414,0.25c1.701,3.029-1.289,5.606-0.322,7.445l0.814,1.406c0.69,0.272,1.227,0.387,2.001,0.517
	c0.027,0.436,1.007,1.605,1.007,1.605l-0.128,2.882l-0.581,0.584l1.303,2.305c0.303,0.243,0.896,1.629,0.896,1.629
	c-0.688,6.417-0.904,2.657-2.127,5.809l0.624,1.21l-0.896,2.541c-0.436,0.775-1.511,0.655-2.093,1.274
	c-1.028,1.095-3.081,5.833-3.478,7.563c-1.488,6.492-4.639,19.004-8.563,24.074l-5.051,7.153l-15.072,28.746H154.04l-79.452,153.333
	v264.272h217l40.18-8.469l11.772,11.772h13.276c2.249-0.725,3.858-7.028,4.488-8.847c0.379-1.097-0.94-6.705-0.259-7.58l3.166-1.061
	c-0.103-2.336-0.377-3.351-2.057-4.846c-0.159-2.344-0.277-4.291,0.939-6.435c-1.255-2.826-0.149-4.455,1.964-6.521
	c1.448-0.179,1.095-0.29,2.311,0.084l0.944,2.291l1.112,0.527l2.139-0.176l1.543-1.149c0.906,0.624,2.663,0.119,3.51-0.354
	l0.598,0.354l-0.256,2.292l3.339,3.345l0.601,4.143c-0.352,0.315-2.114,1.716-2.139,2.116c3.147,4.228,3.574,1.447,6.765,7.84
	c0.936,0.674,1.797,0.546,2.825,0.794c1.629,0.394,3.041,1.704,4.623,2.112c0.19,0.049,1.282,0,1.539,0l1.457-0.97l1.453-0.003
	c0.387,0.431,2.505,0.692,3.081,0.619c1.363,2.355,3.885,4.088,6.676,3.964c3.043-2.455,8.417,5.054,11.555,3.433l0.768,1.673
	l1.543-0.615c2.914-0.686,5.808-3.599,7.703-5.819v-1.146l0.427-0.176l0.515,0.439c0.48,1.702,0.573,3.471,1.539,5.025l1.883,0.97
	c1.275-0.554,5.255,1.114,5.905,2.024c0.302,1,1.091,2.224,1.283,3.176c0.065,0.327-0.211,2.306-0.258,2.673
	c-0.57,4.47,0.293,5.247,2.565,9.313c0.158,0.283,0.01,0.654,0.084,0.97l-1.112,1.149c-0.281,0.807,1.189,6.089,1.411,7.654
	l0.82,0.361c0.445-0.236,0.909-0.507,1.286-0.845c0.085-0.845,0.239-1.71,0.47-2.528h0.934c0.7,0.276,2.037,2.054,2.455,2.649
	l1.987-1.085c0.982,0.299,2.244,0.122,3.275,0.122c1.263-1.61-1.006-0.705,2.808-4.217c0.156-0.143,1.286-0.361,1.286-0.361
	c0.55,0.142,3.808,3.721,3.974,4.339c2.375,1.161,8.459-3.694,11.109-1.199c0.387,0.396,1.167,3.494,1.167,3.494
	c0.356,1.505,0.412,3.062,0.698,4.579l-0.586,0.841l-4.092,0.48c-0.908,0.77-0.981,2.202-2.69,3.494l0.936,1.808
	c0.984,0.402,2.258,0.026,3.155,0.604c1.159,0.747,2.03,2.137,3.505,2.41c0,2.447-2.456,6.872-2.458,6.988
	c0.423,0.326,1.014,1.35,1.283,1.808c0.126,1.372-0.433,4.027-0.938,5.302c0.613,0.293,1.326,1.161,1.519,1.808l-0.351,0.845
	l-2.691,1.808c0.076,0.895-0.43,4.944-1.17,5.181c-0.721-0.485-1.773-0.655-2.569-1.085c-0.727,0.248-1.1,0.996-1.874,1.085
	c-0.484-0.382-1.24-0.724-1.87-0.605c-0.578,0.503-0.567,2.36-0.466,3.015c-2.886,3.252-2.082,3.281-2.576,7.471
	c-1.034,0.778-2.886,2.544-2.575,3.978c0.423,1.958,5.895,8.083,7.477,7.955l0.817-1.206c0.552,0.365,2.919,2.534,2.919,2.534
	c0.574,0.897,0.596,1.845,1.286,2.771c0.826,1.109,1.737,1.498,2.568,2.855c0.182,0.298,0.315,0.45,0.467,0.764
	c1.268,2.617,1.022,4.507,2.684,7.354c0.175-0.111,0.702-1.085,0.702-1.085c0.707-0.195,2.833-0.914,3.271-1.568l-0.466-1.446
	l0.702-0.602c1.754,0.347,5.796-1.415,5.844-3.491l0.004-1.207c0,0,2.491-0.432,2.92-0.963c4.287-5.298-2.386-6.299,2.581-13.98
	l2.339-0.963l1.401,0.483c0.334,0.616,1.035,1.103,1.752,1.084l0.702-0.841c0.983-0.155,1.917,0.355,3.039,0.122
	c-0.758-2.304,0.943-2.691,2.808-2.889l2.926-5.062c3.107,0.2,7.191,0.038,10.167,0.733c0,0,0.72-1.157,0.938-1.568
	c0.472-0.245,0.939-0.509,1.347-0.85c1.832-1.531,4.267-3.262,6.567-3.884c0.544-0.147,3.077-1.403,3.077-1.403
	c0.613,0.908,2.389,2.626,3.505,2.656l0.935,1.207c0.072,1.041,0.235,2.144,0.58,3.132c1.144,0.556,2.34-0.245,3.507,0.125
	c0,0-0.215,1.938,0.096,2.734l0.787,0.818c-0.203,1.119,0.096,3.876,0.096,3.876c0.226,1.833,0.855,3.658,2.864,4.184
	c0.285,0.969,0.493,1.967,0.686,2.957c0.493,0.146,0.851,0.251,1.384,0.206l0.692-0.612c0.632-1.712-0.333-2.193,1.096-3.771
	c0,0,2.607-0.281,3.76-1.22c0.499,0.355,1.1,0.62,1.676,0.818c2.132,2.546,2.174,6.273,6.914,7.455l0.495-0.611
	c-1.292-2.468-1.909-5.016,0.899-6.833l1.978-0.199l2.081-2.139c0.245-0.625,0.225-1.479,0.302-2.143
	c2.044-2.022,2.696-2.388,5.639-2.44c0.096-1.112,1.045-2.005,1.883-2.649l-0.59-2.957c-0.69-0.543-1.47-1.354-1.873-2.146
	c-0.016-0.52,1.06-3.476,0.994-4.383l1.486-0.916c-0.372-2.011,0.31-4.636,2.579-5.197c2.833-7.318,11-7.771,15.066-17.413
	c-0.299-1.154-0.559-2.327-0.764-3.501c-0.915-5.22-0.125-4.847,1.27-8.779L687.331,1090.478z" fill="#174c17" stroke="#8bff8b" stroke-width="14" opacity="0.92" filter="url(#glow)"/>
  <path d="M687.331,1090.478c0.719-2.988-0.278-4.387-0.479-7.292
	c-0.325-4.71,1.117-5.011-1.349-9.833c-0.21-0.411-1.292-0.93-1.702-1.689l-2.602-3.724c-0.607-0.131-1.263-0.482-1.719-0.902
	c-0.824-2.102-1.808-3.969-2.75-5.998c-0.471-1.016,0.043-2.411-0.345-3.508c-0.107-0.303-0.957-2.775-1.208-3.163
	c-0.873-1.346-1.733-1.61-1.754-3.342c-0.769-0.727-1.555-1.533-2.133-2.426c-0.135-0.853-0.492-3.579,0.114-4.282
	c-0.896-1.257-0.26-2.64-0.39-3.987c-0.195-2.018-4.418-5.199-4.781-8.36c-1.515-1.052-2.968-4.945-2.988-6.759
	c-0.003-0.303,0.943-3.137,1.04-3.673c0.351-1.937,0.023-3.488,0.023-5.35c0-0.815,1.106-2.7,1.342-3.697
	c0.504-2.135,0.552-4.507,0.76-6.689c0.09-0.95-0.167-3.675,0.263-4.466c0.763-1.402,2.444-2.504,4.059-2.464
	c2.395-1.513,2.152-6.899,0.167-8.512l-0.741-0.156l-1.004,0.345c-4.814-0.46-3.06-4.818-4.643-7.238
	c-1.192-1.822-5.121-2.458-6.224-4.274c-0.675-1.596-2.279-2.385-2.779-3.559c-0.348-0.816-0.479-1.822-0.807-2.676
	c-3.918-1.493-5.801-4.654-8.087-5.458c-1.451-0.51-3.593-0.19-5.272-0.72c-2.273-2.181-1.573-1.396-2.819-4.677
	c0.062-1.086,0.615-1.741,1.379-2.494c0.12-0.276-0.791-1.767-0.584-2.812l1.522-1.483c0.026-0.136,0.024-0.35,0.092-0.473
	c1.301-2.355,0.656-5.103,2.116-7.205c0.058-0.083-0.083-0.211-0.154-0.271c-0.804,0.029-1.872-0.488-2.628-0.706
	c-0.523-0.666-0.443-1.206-0.069-1.937c-0.599-0.715-1.167-1.298-1.972-1.811c0.273-0.631,0.862-1.336,1.417-1.737
	c0.303-1.456-2.152-8.795-3.083-10.003c0.576-0.314,1.558-1.062,1.846-1.686c-0.234-0.607-2.322-1.615-2.322-1.615l0.85-0.879
	l4.625-2.224c-0.602-0.077-1.204-0.214-1.801-0.321c-3.143-2.797-4.019-5.745-6.046-9.381c-0.033,0.018-2.431-0.401-2.828-0.379
	l-0.38-0.344c-0.101-1.972-2.227-3.147-2.323-4.528c0.175-0.37,0.28-0.908,0.164-1.311c-0.432-0.778-1.397-1.137-1.729-1.879
	c-1.364-3.046-1.354-6.162-3.073-9.057c0.23-0.413,0.081-1.261-0.109-1.656l-0.872-0.774c-0.272-2.066-1.666-4.662-2.31-6.653
	c0.207-0.353,0.399-0.748,0.804-0.916c0.165-0.484-0.603-2.513-0.777-3.052c-0.394-1.21,0.327-2.703,0.602-3.893
	c1.201-5.198,1.053-5.923,0.474-11.098c-0.187-1.671,0.51-3.689,0.554-5.44c0.032-1.284-1.869-2.535-2.211-4.478
	c-0.358-0.121-0.714-0.625-0.813-0.97c0.312-1.365,3.202-3.546,3.685-3.873c1.825,2.169,6.261,0.417,7.379,1.913
	c1.324,0.45,3.866-0.037,5.141-0.345l0.426-0.439c1.778-0.247,4.437-0.247,6.154,0.409c2.822-0.552,4.578-2.535,6.503-4.373
	c0.765-0.729,3.265-0.132,4.599-0.939c-0.708-1.204-3.009-0.71-3.589-2.288c-2.496-0.805-2.695-1.393-4.353-3.278
	c-1.134-1.29,2.688-4.269,3.602-5.319c4.455-1.09,9.295-4.312,12.917-6.988c0.886-0.655,3.506-0.802,3.93-1.994
	c0.375-1.059-0.117-2.171,0.233-3.298c0.09-0.103,0.25-0.232,0.312-0.354c1.935-3.854,4.919-7.506,5.049-12.017
	c0.399-0.228,0.709-2.482,0.981-3.059c0.589-1.244,6.309-6.575,6.958-7.188c2.404-2.267,6.818-3.004,7.834-4.549
	c0,0-0.608-2.74-1.325-4.227c0.411-1.17,0.303-3.151,0.669-3.988c0.414-0.946,1.698-1.1,2.245-2.189
	c0.85-1.696-0.387-1.74,1.082-3.724c0.269-0.363,1.075-0.999,1.004-1.517c-0.204-1.479-0.488-2.107-0.312-3.582
	c0.363-0.539,1.506-1.809,2.237-1.855l0.02-1.007c1.377-0.042,3.231-0.016,4.4-0.811l0.17-0.433
	c3.506-2.083,4.571-5.276,7.569-7.674c4.079-3.263,9.043-4.851,13.875-6.488c1.514-0.513,4.241,0.22,5.882,0.416
	c0.465,0.056,7.156-4.51,11.916-3c1.345-1.14,5.347,0.876,7.986-0.402c0.492-0.436,0.926-1.196,1.134-1.811l1.533-1.429
	c0.349-0.21,1.689-0.947,2.103-0.852l0.388,1.392c0.524,0.703,2.055,1.869,3.009,1.51c0.905-0.566,1.843-1.726,2.431-2.592
	c1.306,0.272,5.095-3.085,5.095-3.085c0.941,0.005,2.533-0.528,3.149-1.291c4.462-0.248,3.585,0.092,7.349,2.778
	c0.953,0.257,3.857-1.238,4.589-1.96c0.298-0.84-0.836-2.02-0.138-3.018l0.384-0.229l4.443,0.648l0.709,0.575
	c0.043,0.914-0.286,5.247,0.072,5.704l0.846,0.602c2.244-0.326,4.66,0.854,5.942,0.568c1.326,1.518,2.024,1.358,3.969,0.909
	c0.774,0.397,1.525,1.101,2.146,1.696l1.618,0.054c0.342-0.118,1.454-1.724,1.883-2.129c0.914-0.276,3.688,2.726,4.347,3.339
	c1.205,1.12,3.793,0.369,5.099,1.73l1.057-0.129c0.792-0.591,1.001-1.546,1.072-2.48c2.211,0.689,5.048,0.091,7.228-0.625
	c0.672,0.871,1.288,1.918,2.245,2.508c0.862,0.013,7.596-1.516,8.156-1.784c0.304-0.413,1.581-2.419,2.076-2.413l0.217-0.338
	c1.25-0.295,2.854-0.027,3.993,0.551l0.276,1.507l3.149,0.199c0,0,2.089-4.109,2.808-5.501l0.801-0.459
	c0.515,0.171,1.122,2.359,1.122,2.359c0.866,0.941,1.511,1.365,2.693,1.622c0.963-0.607,2.051-2.108,2.631-3.048
	c0.126-0.049,0.392-0.208,0.525-0.203c6.934,0.3,4.264,2.287,8.441,3.616c0.88,0.049,1.611-0.463,2.303-0.483
	c1.76-0.052,3.426,0.602,5.118-0.331l0.85,0.801c1.666,0.021,6.393,0.948,7.5,2.514l0.502,0.132
	c1.349-0.213,1.205-4.202,5.134-3.153c2.755,3.307,4.835,2.8,7.979,1.084c1.156-3.523,4.695-4.821,7.218-7.431l0.808-0.152
	c1.041,1.413,0.694,2.756,2.5,3.572l1.086,0.013c1.106-0.518,2.464-3.044,3.563-4.109l0.919-0.152
	c1.077,1.081,0.633,2.622,1.692,3.697c0,0,3.474-1.104,4.42-2.774c0.965-0.051,2.393-0.826,2.959-1.609
	c1.992-0.958,4.519,3.411,6.066,3.835c1.033-0.183,2.224-1.218,3.264-1.639l0.532,0.047c0.953,0.989,7.271,4.563,8.747,4.359
	c0.871-0.12,1.888-0.543,2.746-0.791c0.46,0.441,1.615,1.441,2.271,1.578c0.706,1.323,0.226,7.36,0.226,8.583
	c0.132,0.108,0.191,0.36,0.125,0.517c0.165,0.038,2.519,3.699,2.727,4.248c0.463,1.223-0.117,2.844,0.774,3.934
	c3.011,3.683,9.499,3.817,12.752,0.368c0.75-0.796,1.838-1.67,2.333-2.659l-0.932-1.024c0.595-1.134,0.991-3.18,1.731-4.133
	c0.554-0.713,1.224-4.518,1.224-4.518l0.299-0.538c0.32-0.331,2.549-0.983,2.549-0.983c0.466-0.053,1.278,0.168,1.594,0.541v0.169
	c0.597,0.322,1.26,0.554,1.903,0.761l0.808-0.207c0.357-1,1.546-2.202,2.358-2.828c1.263,0.139,2.583,0.927,3.852,0.625
	c0.729-0.541,1.328-1.694,2.149-1.953c0.438-1.098,1.096-2.716,2.33-3.136l0.725,0.132c0.597,1.086,1.862,2.347,3.225,2.062
	c3.081-5.667,7.926-4.087,9.462-5.62l0.403-0.957c-0.197-0.348-0.435-0.867-0.374-1.284c1.447-0.62,10.889-12.771,11.178-13.97
	c0.285-1.181,0.042-2.215,0.66-3.393c-0.131-0.885-0.658-1.944-1.201-2.643l0.032-4.562c-1.908-1.204-0.207-4.645-0.938-6.59
	c0.773-1.167,0.121-2.417,0.88-3.531c0,0-0.475-2.163-1.086-2.619c-0.338-0.731-0.532-1.82-0.42-2.623l0.66-0.733
	c-0.255-1.397-0.957-2.108-1.043-3.514c0.883-1.984,2.402-3.056,4.619-3.46l0.27-0.703c-0.085-0.443-0.37-1.422-0.299-1.842
	l-1.289-0.517l-0.453-0.639l0.02-0.811c1.171-0.915,3.405-0.717,4.865-1.565c0.614-1.682-1.277-4.806-3.067-4.775l-0.426-0.723
	c0.287-0.535,1.068-2.218,1.506-2.562c0.864-0.13,1.919,0.038,2.765,0.196c1.516-1.058,2.408-2.398,4.147-3.399l0.108-0.311
	l-0.173-0.781c-1.288-1.264-2.846-1.308-4.38-2.105c-0.052-0.366-1.148-2.528-1.371-3.004c-1.152-0.538-1.766-0.763-2.284-1.96
	c0.124-0.535,0.362-1.862,0.167-2.406c-1.379-1.106-1.839-0.323-3.356-0.578c-0.668-0.624-1.204-1.714-1.509-2.555
	c-1.168-1.192-3.262-0.675-4.541-1.683c-2.035-2.826,0.093-3.228,0.745-5.768l-0.492-1.473c0.161-2.792,8.164-11.297,10.305-12.527
	c0.949,0.148,2.445,0.574,3.182-0.287l0.381-0.73c0.04-0.402-1.48-5.935-1.689-6.438l-0.45-0.135
	c-1.301,0.928-7.577,0.848-9.541-0.088c-0.829-0.395-1.564-0.9-2.425-1.23c-0.812-0.312-0.248-2.749,0.148-3.19l2.428-2.71
	c5.199,0.125,10.133-0.961,12.063-6.171c0.631-1.702,0.002-3.276,1.008-5.096c-1.021-4.279-1.376-4.333,1.053-8.644
	c0.046-0.083,0.678-0.429,0.791-0.5c1.13-1.271,0.794-5.045,1.338-7.015c2.1-7.613-1.598-7.151-3.704-13.422
	c-1.038-0.37-5.174-2.426-5.774-3.207c-0.606-0.187-1.339-0.161-1.959-0.088c-3.11-1.954-4.055-3.789-7.42-0.28
	c-2.982,1.188-4.046-1.615-5.916-2.274l-0.049-1.869l-0.147-0.558l-0.453-0.416l-0.217-0.041c-2.794-0.553-2.547-2.641-3.257-4.947
	c-0.119-0.386-0.689-0.919-0.873-1.443c-0.897-2.558-1.831-5.075-3.205-7.421c-0.217-0.371-1.103-1.676-1.083-2.062
	c3.208-5.194,2.542-8.396,8.731-7.836c0.132,0.012,0.672-0.186,0.84-0.233l0.269-0.953c-0.917-2.925-4.051-2.799-6.633-2.899
	c-0.865-0.034-1.763-0.913-2.572-1.146c-1.311-0.378-2.701,0.052-3.951-0.142c-1.138-0.177-2.137-0.749-3.159-1.159
	c-1.763-0.708-5.858-0.844-7.818-1.155l-1.647-0.261c-3.168-1.006-6.499-2.767-9.616-4.065c-1.446-0.603-3.113-0.751-4.662-0.841
	c-2.957-2.888-3.979-3.072-4.701-3.64c-0.816-0.642-1.248-1.774-3.659-7.867c-0.201-0.509-0.517-1.509-0.376-2.068
	c1.607-6.415-1.646-6.557-5.84-10.824c-0.672-0.684-0.924-2.01-1.693-2.781c-1.744-1.749-4.502-2.393-6.473-4.129
	c-0.831-1.862-1.505-3.467-2.713-5.086c-1.285-1.723-0.002-3.942-2.651-7.201c-4.055-4.99-9.804-2.248-13.445-14.041
	c0.593-3.05,0.864-5.773,1.315-8.675c0.346-2.219,2.148-4.68,2.861-6.965l0.023-0.405c0.133-2.66-0.47-6.057-1.397-8.583
	c-0.384-1.046-1.214-2.275-1.434-3.342c-0.571-2.771,1.918-6.468,1.558-7.438c-0.339-0.914-1.062-1.76-1.388-2.677
	c-0.685-1.928-1.281-5.521-1.483-7.532c-0.217-2.165-0.103-4.367-0.334-6.586c-0.029-0.283-0.327-2.723-0.296-2.842
	c0.651-2.46,2.057-3.038,3.311-5.022c0.363-0.574,4.527-10.505,4.76-11.456c0.599-2.435,0.754-4.122,0.964-6.559
	c0.158-1.824,1.198-4.055,1.185-5.785c-0.018-2.473-0.679-7.733-1.031-10.232c-0.398-2.825,0.084-6.531-1.729-9.006
	c-1.334-1.821-3.443-3.196-4.614-4.974c-2.233-3.392-3.361-6.76-6.315-9.601c-1.343-1.292-8.323-4.615-10.239-5.809
	c-1.313-0.818-3.248-1.172-4.433-2.099c-0.902-0.706-1.388-1.963-2.527-2.45c-3.389-1.45-8.292-3.253-10.793-6.096
	c-1.19-1.353-6.073-7.692-7.09-8.06c-0.749-2.377-1.898-4.564-3.087-6.738c-5.589-10.21-8.859-4.244-13.777-12.411
	c-1.348-2.238-1.771-5.083-2.867-7.408c-1.551-3.294-2.75-5.146-5.121-7.779c-1.414-1.571-3.564-3.438-4.606-5.288
	c-1.404-2.495-4.338-4.588-5.984-7.019c-0.141-0.209-0.667-2.767-0.859-3.194c-1.759-3.882-3.265-7.992-5.754-11.412
	c-1.567-2.152-2.922-4.452-4.359-6.697c-8.271-12.919-11.956-0.059-17.433,0.445c-2.714-0.479-2.069-5.383-7.758-6.735l-0.2-0.048
	c-2.33-0.085-9.982,0.515-11.592-0.047c-0.771-0.27-3.21-2.718-3.841-3.308c-0.881-0.824-2.218-1.764-3.271-2.281
	c-4.536-2.227-5.553-1.437-8.032-2.474c-2.243-0.938-4.493-2.105-6.709-3.136c-2.017-0.938-4.08,1.133-6.059,1.129
	c-1.384-0.689-4.548-2.866-5.922-2.859c-0.076,0.061-3.496,0.573-3.731,0.622l-0.167,0.142c-1.958,1.685-5.493,1.062-7.864,1.068
	c-1.447,0.004-7.104,7.328-8.441,8.33c-0.119,0.241-0.139,0.576,0.007,0.804c0.433,0.678,1.146,2.08,1.866,2.487
	c1.956,1.107,6.581,1.465,3.327,5.038c-1.058,0.541-12.442,4.236-12.805,4.197c-0.978,0.581-2.016,1.668-2.575,2.656
	c-0.295,2.751,0.189,5.156-0.21,7.863c-0.923,1.358-2.73,2.695-4.227,3.329l-0.049,0.297c-0.714-0.224-3.328,1.318-3.717,1.511
	c-0.199,0.285-1.405,6.025-1.401,6.14c0.175,4.943,2.229,4.023-1.089,9.364c-1.139,1.833-3.252,3.892-5.502,3.863
	c-4.294-3.385-4.701-3.113-9.583-3.278c-1.379,0.91-3.092,1.373-4.577,2.112c-2.486,1.238-5.158,1.884-7.415,3.474
	c-2.227,1.569-4.151,2.323-6.562,3.288c-3.041,7.66-6.809,4.128-8.875,6.667c-0.544,0.023-1.444,0.166-1.91,0.486l-1.404,2.538
	l0.062,0.865c0.79,0.696,1.45,1.513,2.152,2.298l0.082,0.696c-0.835,3.558-6.06,0.343-7.405-0.561
	c-1.757-1.18-3.834-1.313-5.348-2.717c0.024-1.806,1.553-3.238,2.339-4.758c0.542-1.049,0.402-4.446,0.521-5.667l0.02-0.196
	c-0.281-0.854-0.356-1.644-0.578-2.467c-0.798-2.971-7.414-1.266-8.9-1.571c-1.353-0.278-2.435-0.906-3.882-0.666
	c-2.258,0.374-1.756,1.07-4.015,0.027c-3.208-1.48-5.482-2.464-8.442-4.677c-1.646-1.231-3.287-2.939-4.954-4.062
	c-3.916-2.638-6.651,0.272-11.837-5.221c-0.58-0.615-0.599-1.461-1.046-2.058c-1.548-2.065-5.265-4.199-6.552-6.231
	c-0.772-1.218-1.675-6.276-2.829-6.742c-3.924-1.583-3.544,0.127-5.462-0.287c-1.413-0.305-2.445-0.917-4.098-0.902
	c-6.865,3.557-3.428,3.284-6.713,7.931l-0.055,0.683c-0.255,0.008-1.087,0.092-1.237,0.223c-1.195,1.038-1.671,2.081-2.533,3.261
	c-0.935,1.281-3.088,2.363-4.429,3.298c-0.593,3.214-4.628,3.301-4.994,6.965c-0.853,0.647-1.9,0.614-2.722,1.098l-0.276-0.078
	c-2.682-0.742-4.649-2.185-7.155-3.24c-1.698-0.715-3.344-0.311-4.911-1.771c-2.118-0.196-3.581,6.817-3.865,8.344
	c-0.117,0.631-0.824,1.285-1.159,1.801c-0.68,1.047-0.919,3.211-1.326,4.471c-0.344,1.065,1.024,2.521,0.397,3.697l-2.041,1.804
	l-1.352-0.669c-1.448-0.354-1.868,0.592-3.133,0.933c-1.345,0.363-6.568,1.021-7.192,1.592c-1.001,1.734-0.13,3.862-2.759,4.856
	l-0.508-0.112c-0.315-0.743-0.781-1.441-1.208-2.122l-0.288,0.037l-0.66,0.595c-0.107,2.23-1.235,4.194-2.589,5.924l0.843,0.771
	c1.071,0.011,3.091,1.707,2.399,2.737c-0.93,0.037-2.386-0.826-3.013-0.547c-0.798,0.494-1.184,1.864-1.939,2.031l-1.217-0.037
	c-0.879,0.438-1.829,1.353-2.477,2.068c-0.038,0.326-0.051,0.802,0.134,1.095c-0.205,0.917-1.062,1.396-1.246,2.504l-0.315,0.101
	l-0.44-0.378l-0.127-0.369l-0.131-2.855l-0.188-0.341l-0.532-0.156l-0.584,0.541c-0.299-0.004-0.663,0.079-0.916,0.246l-1.142,1.082
	c-0.129,0.46-0.552,1.173-0.98,1.423c-1.017,0.311-4.114-0.551-4.114-0.551l-1.03,0.355l-0.594,0.764l0.442,0.324
	c0.87-0.094,2.696,0.003,3.314,0.804l0.072,0.365c-0.296,0.502-2,1-2.747,1.73c-0.093,0.816-3.145,1.468-3.458,1.899
	c-0.309,0.426-1.203,0.287-1.689,0.618c-0.712,1.782-2.71,3.485-4.796,2.977c-0.36,0.353-1.107,0.657-1.608,0.676l-0.243,0.578
	l-0.076,1.426c-1.993,0.241-1.544,2.668-3.852,2.7c-0.983,0.736-1.832,1.895-1.883,3.157c-0.216,0.301-0.994,0.973-0.994,0.973
	c-0.625,1.929-2.032,3.303-2.543,5.177c-1.871,0.379-4.348,0.177-5.721,1.247c-0.329,0.85,0.098,2.395,0.351,3.224l-0.095,0.304
	c-0.621,0.004-1.305,0.154-1.854,0.446l-0.324,0.521l0.334,0.99l-0.403,1.189l-0.322,0.267c-0.851,0.108-1.378-0.244-1.834-0.949
	l-1.105,0.077c0,0-2.436-0.549-2.717-0.727c0,0-1.864-2.187-1.88-2.321c0,0-1.195-0.594-1.883-0.335l-0.758-0.162
	c-0.651-0.871-2.027-2.94-2.027-2.94l-1.063-0.341c-0.192-0.4-0.173-0.986-0.042-1.399l-2.802-1.733l-2.458-0.102
	c-1.982-1.117-3.286-2.312-5.816-1.879l0.174-0.2c2.19-2.49,5.134-4.399,4.892-7.958c-0.047-0.689-0.535-2.499-0.246-3.139
	c0.537-1.188,1.458-2.161,1.946-3.464c-0.027-0.991-0.66-1.231-0.88-1.872c-0.187-0.545-0.139-1.258-0.286-1.825
	c-0.378-1.463-3.097-3.198-2.939-4.836c0.336-0.642,2.521-0.945,3.461-2.163l-0.004-0.784c-0.231-0.668-1.242-1.473-1.847-1.757
	l-0.039-0.561l0.656-1.098c0.852-0.479,3.232-1.386,3.603-2.021c0.674-2.755-1.134-4.388-0.84-6.928
	c0.75-1.769,5.857-3.78,7.552-4.139c1.298-1.458,2.897-3.031,3.97-4.633c1.428-2.133-1.087-6.471,5.309-8.962
	c1.343-0.523,2.77-3.037,2.373-4.562c-2.274-1.002-2.31-4.56-2.401-6.64c-0.032-0.714,0.656-1.29,0.796-1.99
	c0.154-0.769-0.159-1.803,0.056-2.653c0.478-1.894,2.083-3.242,2.209-5.244c-0.19-1.16-2.087-1.086-2.809-0.98l-0.19-0.257
	c0.493-1.773-0.517-3.651-2.018-4.562l-0.017-0.476l1.244-1.612c0.146-0.614-0.545-1.752-0.66-2.48
	c1.217-3.156,3.133-3.137,3.59-3.92c0.068-0.257,0.165-0.564,0.138-0.835l-0.817-1.142c-0.979-0.537-2.379-0.9-3.495-0.916
	c-1.746-1.306-4.68-3.627-6.935-3.755c-0.565-0.526-1.046-1.958-0.998-2.687c-0.212-0.554-1.065-1.133-1.611-1.277
	c-0.17-0.832-1.153-1.105-1.365-1.885c0.253-2.986,2.417-4.792,4.613-6.603c-0.617-1.508,0.838-4.193,1.588-5.377
	c1.639,0.229,2.276,0.392,3.822-0.362l1.525-2.359c0.952-0.45,3.295-0.963,3.806-1.564c-0.057-0.518,0.047-1.144,0.279-1.612
	c-0.425-1.012-0.437-3.228-0.407-4.292c0.805-0.718,3.889-0.739,6.68-3.321c1.146-1.062,1.996-5.371,3.609-6.012
	c0.17-1.392-3.121-2.981-4.229-3.095l-0.167-0.199c0,0-1.067-1.849-1.07-2.214l1.474-1.467c-0.057-0.647,0.016-1.352,0.174-1.98
	c2.352-1.996,0.726-3.866,1.762-6.069c-0.388-0.712-0.791-1.667-0.863-2.487c1.497-2.532,0.812-4.872,0.184-7.546l0.502-0.514
	c0.837,0.131,2.389-1.757,2.838-2.264l0.154-1.281c3.929-3.438,1.199-3.086,2.257-6.363c1.271-0.496,1.141-1.973,2.198-2.646
	l1.627-0.003c0.776-0.163,2.555-4.72,2.746-5.539c0.035-0.87-2.868-3.443-3.441-3.906l-0.459,0.041
	c-2.178-1.361-3.169-3.763-5.893-4.153c-3.176-3.708-0.378-3.736-2.631-7.911c0.794-1.877,1.122-5.643,0.755-7.61
	c-0.173-0.929-1.176-2.186-1.441-3.23c-0.153-0.605-0.038-1.379-0.223-1.967c-0.845-2.695-1.938-2.753,0.01-5.731
	c0.207-3.004-4.582-0.868-4.561-4.082l0.022-3.437l0.739-0.706c-0.466-2.098,1.034-3.05,0.948-4.67l-1.1-2.382l1.155-2.061
	l1.056,0.003l0.906-0.534c1.158,0.105,1.575,0.207,1.98,0.17c0.39-0.035,0.768-0.199,1.783-0.613
	c0.592-0.515,0.529-2.488,0.417-3.149c0.646-0.552,1.309-1.237,1.726-1.987c0.072-0.549-0.538-1.831-0.787-2.291
	c0.214-1.371,0.349-1.828,0.932-3.132c0.044-0.449-0.51-0.713-0.712-1.027c-2.414-3.756-2.235-1.176-4.019-3.281l-2.668,0.088
	l-0.649-0.385l-0.604,0.152c-0.52,0.247-0.893,1.602-0.955,2.095c-0.735,0.722-7.825,1.354-9.613,1.392l-0.856-0.95
	c-0.715-0.291-1.56-0.487-2.336-0.487c-0.242-1.037-0.69-1.476-1.453-2.085l-0.919,0.03c-0.746-0.472-5.871-5.162-6.938-2.578
	c-1.459,0.121-3.839-0.532-4.997,0.385c-0.409-0.193-9.061-1.156-9.223-1.129l-0.55,0.321c0.111,2.479-6.374,9.324-7.841,11.358
	c-0.524,0.669-5.854,5.414-6.572,5.495c-0.591-0.976-0.633-2.038-1.696-2.761c-2.16-1.469-11.672-4.54-12.359-5.339
	c-0.328,0.088-0.84,0.065-1.113-0.169c-0.912,0.109-1.962,0.533-2.75,0.99c-0.443,1.213-1.319,2.071-1.808,3.139
	c-0.464,1.015-1.088,3.784-3.107,2.686c-0.95-0.516-2.955-1.552-3.602-2.332c-4.906-0.404-3.713-2.449-6.448-2.882l-0.606-0.936
	c-0.175-0.875,0.766-4.433,0.121-5.451c-1.291-2.037-3.671-2.979-4.907-4.964c0.299-4.026-1.409-3.238-1.585-5.045
	c0.124-1.258,1.021-1.924,1.401-3.068l-0.446-1.463c-1.327-1.165-2.538-2.195-3.514-3.643c-0.777-4.211,2.973-4.663,4.101-7.529
	c0.649-1.651,0.337-3.604,1.542-5.076c1.293-1.579,4.799-1.451,5.501-3.944l0.292-0.186c0.262-0.697,1.708-2.97,1.679-3.619
	c-0.052-1.188-0.563-2.312-0.278-3.531c0.242-1.033,1.381-3.191,1.375-4.049c3.003-7.4,5.15-15.449,5.819-23.391l-2.942-0.037
	c-1.739,0.56-1.724,2.869-2.809,3.535l-0.63-0.017c-2.396-1.79-3.891-4.09-5.998-6.096c-0.481-0.238-1.345-0.246-1.854-0.128
	l-0.606-0.882c0.297-0.423-0.042-2.741-0.253-3.278c-1.076-0.639-2.996-1.915-3.756-2.801c-0.138-0.161-0.438-0.839-0.536-1.054
	c-0.929-2.065-1.99-3.621-3.117-5.59c-1.007-1.759,0.007-5.141-2.746-5.518c-0.289-0.802-0.445-1.679-0.558-2.521
	c-1.965-2.537-9.576-4.844-11.657-2.444c-0.777,0.897-0.762,1.692-1.27,2.66c-0.483,0.92-2.292,0.944-2.783,2.562
	c0.047,1.384,0.455,2.868-0.426,4.089c-1.036,1.294-4.629,0.507-6.112,2.294c-0.529,1.004,1.474,4.537,1.109,5.596l-0.591,0.906
	c-0.828,0.651-3.29,0.201-4.219,0.017c-3.734-0.741-5.723-1.272-4.957-5.448c0.137-0.747,0.589-1.388,0.561-2.19
	c-0.084-2.366-1.229-4.061-1.532-6.4l-0.984-0.24c0,0,0.059-1.88-0.089-2.126l-0.869-0.862c-0.26-0.144-1.113-1.619-1.113-1.619
	l-2.257,0.503l-1.656,0.744c-0.403-0.15-0.817-0.301-1.198-0.503l-1.085-1.396c-0.256-0.461-0.49-1.093-0.45-1.632
	c-0.738,0.094-1.45-0.412-2.083-0.72c0.238-1.051,0.117-1.128-0.436-2.024l-0.438-0.01c-0.315-0.123-0.327-0.545-0.328-0.828
	l-1.69-2.359c-1.178,0.082-0.458,0.455-1.427,1.156c-1.59,1.15-6.483,1.468-8.598,1.406c-1.097,1.021-4.097,4.427-4.594,5.687
	c-0.287,0.728-0.004,1.666-0.17,2.345c-0.175,0.716-2.658,3.938-3.209,4.346c-5.16,3.817-7.972-3.521-11.987,2.034
	c-1.526,0.218-3.021,1.254-4.538,0.967c-1.441-0.273-3.345-2.297-4.442-2.19c-0.248,0.166-1.909,0.911-2.264,0.811
	c-1.914-0.537-3.963-1.274-5.797-1.997c-0.74-0.292-1.549-1.058-2.3-1.25c-1.252-0.321-2.198-0.306-3.462-0.909
	c-1.217-0.581-3.222-2.095-4.383-2.852c-0.383-0.25-2.021-1.051-2.388-0.561c-0.202,0.642-0.939,2.623-0.65,3.031
	c0.741,0.986,2.664,1.972,3.779,2.369c2.746,3.777,1.828,2.966,2.52,7.205c0.236,1.448,0.694,2.605,0.801,4.123
	c0.034,0.485-0.071,0.962-0.227,1.426c0.219,0.684,3.938,3.587,4.633,3.866c1.443,1.691-2.077,5.81-2.264,7.728
	c-0.497-0.159-1.78-0.419-2.297-0.186c-1.191,1.11-2.454,2.854-3.024,4.383c-2.511,0.004-3.914,2.078-6.306,2.139
	c-0.402,1.082-6.905,0.986-8.038,0.963c-2.242-0.045-3.336,2.927-6.166,2.288c-1.91-0.432-5.169-4.344-6.092-4.251
	c-0.28-0.595-1.267-1.333-1.804-1.655c-1.077,0.201-1.981-0.727-3.094-0.477l-1.158-1.058c-1.101,0.001-2.301,0.298-3.365,0.247
	c-2.569-0.125-4.077-0.499-6.494,1.338l-0.246,1.027c-2.083,1.313-6.143,0.862-7.021,2.085l0.075,2.156
	c-2.651,3.305-3.53,4.962-1.834,8.996l-1.463-0.024c-1.555,2.872-2.054,3.359,0.319,6.126l-0.201,1.48l-2.102,0.409
	c-0.261,1.402,0.572,3.046,0.492,4.565l0.84,1.105c0.114,1.3,0.174,3.727-0.352,4.971c-0.513,1.214-3.069,4.745-3.231,5.759
	c-0.17,1.063,0.487,1.62-0.476,2.565c-4.722-1.146-6.643-0.255-9.327,3.785l-0.771-0.068c-1.072-0.62-1.121-2.28-2.01-2.997
	c-1.94-1.566-5.042-3.052-6.395-5.109c-0.747-0.014-0.939-0.138-1.552,0.169c-3.111,4.969-4.555,3.919-6.529,6.356
	c-2.289,0.892-4.614-0.041-6.788-0.416c-1.087-0.187-4.737,1.199-6.188,1.527l-1.02,1.159c-0.74,0.21-1.557,0.368-2.329,0.355
	c-0.934,0.617-1.074,1.997-1.28,3.028c-1.116,0.718-3.614-0.325-5.073,0.064c-1.099,0.555-2.235,3.403-2.362,4.552l-2.973-2.42
	c-1.093-0.89-1.911-1.911-3.081-2.785c0,0-1.885,0.63-2.139,1.062c-1.328,0.302-2.289,0.968-3.405,1.683
	c-1.322-0.159-5.058-0.431-6.161-0.03l-1.677-0.973c-1.525-0.025-2.337,0.194-3.485,1.24c-1.543-0.27-5.326-1.044-6.67-0.48
	c-0.663,0.278-1.274,1.112-1.938,1.372c-1.598,0.626-3.79-0.438-5.253,0.686c-1.984-0.034-2.908-2.519-1.835-4.048
	c-0.114-0.482-1.272-1.503-1.64-1.808c-3.578-0.015-4.27-3.177-6.437-5.282c-1.165,0.1-3.031-0.662-3.764-1.584l-1.23-0.098
	l-2.106,1.095l-0.66-0.064c-0.325-0.172-1.162-1.132-1.162-1.132c-0.354-0.921-1.215-2.234-2.057-2.792l-2.185,0.449
	c-0.668-0.311-1.015-0.511-1.716-0.551c-0.278,1.345-1.443,7.845-1.227,8.986l-0.758,0.997c-0.109,0.343,0.898,7.815,1.733,8.435
	c-1.898,3.874-4.063,1.694-6.5,2.135c-1.943,0.777-0.911,3.318-1.919,4.646c-0.565,0.601-1.896,0.285-2.608,0.473
	c-1.348,0.357-2.765,0.993-4.085,1.467c-2.229,0.801-4.165-0.01-6.086,1.443c-0.211,0.769-0.031,1.515-0.167,2.237
	c-0.67,3.561-0.075,4.189,2.937,6.039l0.104,0.814l-1.263,0.375c-0.126,0.533-1.214,2.215-1.827,2.163
	c-1.352,2.041-3.433,3.355-4.722,5.346c-0.478,0.739-1.251,2.916-2.066,3.362c-0.647,0.354-1.545,0.601-2.241,0.872l0.104,0.754
	l1.595,0.828l0.588,1.041l-0.371,2.568c-0.027,0.189,3.687,5.691,4.19,6.471c0.222,0.345,0.213,0.652,0.59,0.956
	c-0.512,0.596-1.168,1.099-1.788,1.575c-0.877,0.102-2.579,0.207-3.429-0.145c-0.424,0.049-1.192,1.166-1.388,1.494l0.304,0.926
	c1.434,0.7,5.642,5.014,5.902,6.38c-0.456,1.244,0.038,10.909-0.777,13.69c-0.57,0.719-1.589,0.937-2.464,0.838
	c-0.906,0.595-1.211,1.554-2.306,2.075c-0.819,0.389-1.812,0.382-2.635,0.838l-0.226,2.349c-0.22,0.394-0.827,1.097-1.296,1.217
	l-0.942-0.068c-0.458,0.17-0.928,0.579-1.178,0.997c0.236,1.919-0.553,4.359-0.273,6.704c-0.378,0.847-2.466,1.469-3.32,1.338
	l-0.266,0.835c-1.052,1.155-2.935,0.641-4.095,1.554c-0.122,0.737-0.095,1.603,0.122,2.321c0.363,0.203,0.833,0.341,1.25,0.348
	c2.322,1.579,3.188,4.745,6.562,5.289c0.73,1.513,0.447,3.273,1.118,4.595l-0.64,1.477l0.07,1.453
	c3.167,4.641-0.251,10.674,3.599,15.436c-1.116,1.803,0.706,13.105-0.916,13.967l-0.542,0.219c-0.815-0.063-3.533-0.867-4.005-0.656
	c-2.808,1.259-3.244,1.804-6.575,0.27c-1.698,0.436-3.146,1.933-4.543,2.028c-0.686,0.047-1.185-0.283-1.909,0.122
	c-0.28,0.436-0.076,1.6,0.066,2.041c-0.093,0.274-6.941,2.289-7.783,2.112c-1.005,0.758-1.315,3.645-2.172,4.173
	c-1.552-0.677-2.477-0.045-3.579-0.422l-1.493-1.551c-1.234-0.48-4.301,1.998-5.219,1.747c-0.83-0.502-2.384-5.06-2.481-6.059
	c-0.948-0.872-2.127-1.461-2.939-2.48c-1.052,0.376-2.973,0.938-3.869-0.088c-0.666-1.363,0.336-4.906-1.096-2.957
	c-2.485,3.384-1.389,6.954,2.71,8.408c1.646,1.81,1.484,5.581,2.805,7.685c1.233,1.963,2.077,3.159,3.103,5.336
	c0.086,0.183,0.461,0.878,0.588,1.01c0.543,0.568,1.156,0.773,1.643,1.458c0.132,0.186,0.429,0.729,0.436,0.965
	c0.038,1.256-0.558,2.542-0.971,3.707c0.076,0.326,0.589,2.772,0.683,2.913c0.488,0.73,4.136,5.559,5.335,6.225
	c0.245,0.556,0.767,1.395,1.289,1.744c4.326,1.069,5.513-6.369,6.335-8.823c0.771,1.088,7.063-0.272,9.763,6.011
	c0.916,2.131-2.973,4.046-3.287,5.657c-0.397,2.039,2.162,4.635,3.321,5.968c1.773,2.039,1.64,2.149,3.924,3.619
	c1.378,2.224,0.575,3.717,0.676,6.103c2.563,3.918,1.338,2.656,0.591,5.941l0.649,0.899c0.29-0.24,0.766-0.508,1.161-0.473
	c1.357,1.235,2.227,3.807,3.074,5.315l-0.252,0.568c1.382,2.714,2.501,4.394,1.48,7.411c-0.557,0.581-2.089,1.349-2.904,1.271
	c-0.743,0.589-1.677,1.361-2.25,2.088c-0.366,0.465-2.144,6.171-2.057,6.806c0.935,1.664,2.005,3.039,2.162,4.968
	c0.065,0.796,0.493,1.512,1.283,1.845l1.64,0.071c0.414,1.912,2.403,2.797,2.776,4.92l0.338,0.253l1.444,0.101
	c0.767,0.835,1.055,1.254,2.07,1.977c0,0-0.563,1.145-0.948,1.389c-0.381,1.706-0.09,2.449,1.092,3.474
	c0.032,0.112,0.056,0.393,0.134,0.476c1.147,1.222,1.643,2.759,2.615,3.886c3.625,4.202,8.108,7.086,12.176,10.726
	c1.447,1.295,1.186,3.168,2.713,4.613c0.076,0.346,0.14,0.736,0.101,1.092c0.33,0.457,0.999,0.733,1.397,1.189
	c2.017,0.146,4.007,0.436,3.977,2.896c0.622-0.013,2.186-0.038,2.766,0.199c2.524,3.457,4.119,5.918,7.661,8.421
	c0.082,0.058-0.095,0.696-0.095,0.696l-0.968,0.548c0.33,0.772,1.294,1.178,1.871,1.727c1.024,0.973,1.332,2.584,2.274,3.355
	l0.824-0.439c0.594-0.024,1.886,0.816,2.329,1.149l1.024,1.325c-0.564,1.619-2.96,4.45-0.502,6.029l0.96-0.071l0.558,0.426
	c0.167,0.534,0.575,1.638,1.017,2.024c0.103,0.356,0.161,0.883-0.016,1.23c1.192,0.135,3.587,2.16,3.733,3.484
	c0.864,0.926,2.783,0.95,3.95,1.896c0.884,0.716,1.058,3.552,3.622,3.149l0.971-0.798l0.531,0.372
	c-0.384,0.873,0.092,3.575,0.092,3.575l2.126,1.119l1.604,2.061l-0.147,0.473c-0.275,0.183-0.813,0.63-0.86,0.993l0.302,0.588
	c0.608-0.13,1.916,2.152,1.916,2.152c-0.363,0.742-0.631,1.561-0.824,2.362l0.462,1.01l0.775-0.743
	c0.03-0.3,0.198-1.162,0.495-1.335l0.286-0.078c0.269,0.459,2.011,1.883,2.507,2.018c-0.06,0.653-1.168,2.629-0.663,3.007
	c-0.029,1.53,2.628,4.991,4.046,4.663l1.552-0.142c0.768-0.401,2.488-1.237,3.373-1.321l2.218,0.507
	c0.754,1.462,1.855,1.923,3.32,2.143l0.299,0.73c-0.159,0.18,0.961,0.822,1.562,1.085c0.924,0.766-0.649,2.617-0.331,3.207
	c0.165,0.295,0.765,0.531,1.06,0.632c0.439-0.229,1.02-0.473,1.529-0.453l0.898,1.858c0,0,1.459,2.667,1.703,2.873
	c0.457,0.118-0.109,1.408-0.988,1.913c-0.113,0.159-0.1,0.437-0.04,0.612l0.778,0.767l1.463,0.105l0.105,0.365l-0.384,1.196
	l0.357,0.537l0.532,0.145c0.069-0.517,0.993-0.912,1.451-0.841c0.041,0.683,1.125,2.223,1.45,2.646l0.751,4.004l-2.333-1.933
	l-1.093-0.24l-1.016,1.994c-0.692,0.482-0.515,1.899-1.168,2.663c0.017,0.365,0.754,0.936,1.024,1.105
	c1.917-0.382,5.229,1.98,5.229,1.98l-0.515,0.717c-0.958-0.089-1.827,1.534-1.827,1.534l-0.292,0.723l-0.535,0.101l-1.582,0.284
	l-1.712-0.081c-0.281,0.111-0.514,0.455-0.63,0.717c0.506,1.911-0.727,2.054-0.932,3.866l-1.297,0.179l-0.062,0.304l-0.282,1.923
	c0.257,0.6,2.589,1.686,2.589,1.686s1.164,0.152,1.404,0.132L165.51,475l2.015,0.699c0.622,1.909-0.249,3.985-0.207,5.886
	c0,0,2.096,0.891,3.13,1.22l0.508-0.186c0.982,0.104,2.219,1.039,2.963,0.993c0.237,0.291,0.796,1.034,0.79,1.437
	c-0.146,0.267-0.427,0.942-0.272,1.254l0.578,0.875l0.558,0.203c0.158,0.52,0.351,1.007,0.594,1.49l-1.434,1.764l-0.118,0.5
	l0.37,1.206l1.926,2.514c0.43,0.309,4.908,6.626,5.024,7.144c0.464-0.084,1.015,0.024,1.456,0.162l0.692,0.683
	c0,0,0.461,1.413,0.505,1.683c-0.369,1.882-2.613,3.065-2.277,5.376c0.426,0.637,1.484,1.668,2.271,1.852l-0.545,0.689
	c0.507,0.909,0.13,2.581,1.099,3.031c0.125,0.362-0.538,2.031-0.538,2.031c0.423,0.19,0.909,0.549,1.135,0.966
	c0.081,0.707,0.285,3.048,0.285,3.048c0.357,0.863,1.086,5.542,1.086,5.542l1.08-0.902c0.239,0.38,1.033,1.295,1.548,1.308
	c0.454-0.812,2.919-5.143,2.919-5.143c0.293-0.465,0.482-1.456,0.23-1.977c0.065-0.538,1.304-1.174,1.761-1.365l0.292-0.639
	c0.659-0.516,2.665,0.428,3.006-0.311l0.449-0.078c0.927-0.656,0.949-2.442,1.283-2.687c0.914-0.001,2.751-1.438,3.347-2.007
	c-0.023-1.582,1.763-2.695,1.801-3.599c-0.07-0.394-0.768-2.315-0.768-2.315c0.452-0.52,3.332-0.705,4.022-0.324l2.103,0.175
	c0.669,1.148,4.575,3.899,4.472,4.373c-0.253,1.168-0.214,2.632-0.512,3.704c-0.464,1.667-1.426,3.177-1.769,4.91
	c0.035,0.465,1.079,1.159,1.434,1.338c0.172,1.138-0.961,4.927-1.22,5.866c-0.822,0.854-4.179,2.755-5.243,3.15
	c-1.193,1.197,0.676,5.272,0.308,6.677c-0.16,0.613-0.689,1.244-0.817,1.855c-0.229,1.089,0.257,2.308-0.505,3.312
	c-2.375,1.242-3.138,3.187-6.165,3.359l-0.918-0.433c-0.468-0.518-0.828-1.402-0.945-2.082c-0.468-0.108-1.41,0.431-1.748,0.696
	c-1.373-0.034-3.738-0.576-4.954-0.412c-0.155-0.486-1.935-1.25-2.389-1.487c-0.809,0.175-4.402,1.42-4.934,2.041
	c0.528,0.736,1.112,1.813,1.243,2.727c-0.226,1.005-0.469,1.248-1.26,1.822l-1.152,1.936c-0.75,0.061-1.766,0.002-2.332,0.578
	c-0.002,1.137-0.636,1.703-1.579,2.207l-0.892-0.095l-0.626-1.071c-1.378-0.034-2.423-0.421-3.658-0.919
	c-0.634,0.102-1.678,2.237-1.532,3.072c0.301,0.342,1.774,1.821,1.732,2.23c0.379,0.384,1.151,0.793,1.697,0.834
	c0.295,0.692,1.286,1.707,1.818,2.207c0.118,1.554,1.643,3.458,1.574,4.129l-0.256,0.554c-2.436,0.927-3,4.229-3.337,6.492
	c0.836,1.297,1.794,2.846,1.799,4.45l1.2,0.453c0.018,0.217,0.151,1.151,0.108,1.314c-0.494,1.889-2.049,3.965-2.832,5.823
	c-0.659,1.564-4.134,13.763-3.573,15.541c0.229,0.727,0.905,1.698,1.273,2.389c1.252,2.35-0.92,5.507-1.296,7.752
	c0.76,1.528,0.355,2.866,0.872,4.42c0.557,1.675,1.876,3.209,2.159,4.9c0.667,3.987,1.246,16.06-0.206,19.394
	c-0.554,1.271-2.317,2.919-2.537,4.011c-0.248,0.028-0.57-0.119-0.725-0.311c0.589-3.612-1.292-4.403-4.561-4.833
	c-0.484-0.717-1.674-1.652-2.563-1.771l-0.728,0.162c-0.064,0.383-1.601,1.335-1.601,1.335c-0.271,0.479-3.339,1.899-4.005,2.159
	l-1.506-0.51c-0.446,0.228-0.951,1.185-1.125,1.615c0.012,0.691,0.211,1.962,0.633,2.548c0.023,0.39-1.544,1.332-1.544,1.332
	c-0.336,0.517-0.291,0.785-0.868,1.075c0.589,0.039,1.284,1.156,1.668,1.696l0.716,2.855l-0.342,1.004
	c-0.452,0.339-0.927,0.607-1.208,1.112c-1.601-0.705-4.359-3.629-5.512-4.971c-3.891,0.696-4.255-2.548-7.201-2.187l-0.423,1.592
	c0.484,0.624,0.891,1.645,0.938,2.437c-0.352,0.69-1.754,1.568-2.408,1.889l-1.657,1.727l-0.616,1.227
	c-1.394,0.252-2.8,1.012-3.671,2.139l-1.673-0.091c-0.439-0.616-1.002-1.266-1.644-1.683c-0.612,2.115-1.083,2.866,0.879,4.531
	c-0.001,2.046-0.158,3.112-1.079,5.055c-0.545,0.31-1.064,0.851-1.375,1.392c0.679,1.572-1.542,3.294,0.446,8.33l0.666,0.564
	l1.815,0.314c0.036,1.717,2.155,1.872,1.968,3.923c-2.521,1.78-3.368,5.875-1.118,8.296c0.502,0.54,1.146,0.505,1.502,1.49
	l0.158,2.518l0.699,0.169c0.423,0.293,0.674,2.597,0.768,3.136c-1.113,1.739-0.801,3.568-1.243,4.383
	c0.645,0.257,1.779,0.872,2.198,1.463l0.578,2.325c0.156,0.628-1.396,1.371-1.431,2.146c-0.05,1.1,0.808,2.989,2.11,3.001
	c1.278,1.008,1.579,2.769,3.025,3.903c0.15,0.812,0.301,4.18,1.49,4.285c-0.004,0.393,2.872,3.463,3.333,3.565l0.837-0.024
	c0.309,0.289,1.417,1.264,1.417,1.264c1.023,1.813,1.679,3.635,3.576,4.66l0.358,0.784c1.15,0.249,2.661,2.19,4.078,2.785
	c-0.015,0.333,1.264,1.578,1.532,2.108l-0.03,0.253c1.083,0.873,1.451,2.728,2.831,3.062l0.66,2.213
	c-0.224,0.488-0.508,1.492-0.374,2.041c0.468,0.391,1.162,2.187,1.162,2.187c0.396-0.124,2.847-0.713,2.847-0.713
	c0.42,0.779,0.356,1.975,0.683,2.855l0.498,0.311c0.553,1.144,0.688,2.542,1.181,3.755c0.629,1.547,1.755,2.851,2.46,4.406
	l1.333,0.649c0.226,0.959,0.399,2.181,1.352,2.693c0.197,2,0.649,4.292,2.342,5.579c0.691-0.004,1.863-0.305,2.477-0.156
	c0.107,0.385-0.156,1.01-0.368,1.315c0.011,1.064,0.412,4.183,1.09,5.042c0.906,0.628,1.999,0.849,3.087,0.771
	c1.752,0.996,3.062,2.09,4.912,3.024c1.557,3.785,3.688,1.007,5.309,1.484c0.847,0.695,0.356,1.642,1.798,2.108
	c0.388,0.719,0.114,1.567,0.21,2.325c0.07,0.556,1.884,1.787,2.323,2.727l1.004-0.021c1.388,1.28,3.49,2.757,5.073,3.835
	c1.346,0.917,2.531,1.976,4.048,2.629c0.541,0.233,1.323,0.175,1.775,0.625c0.585,0.583,0.812,1.237,1.716,1.494
	c0.276,0.481,0.569,1.09,0.604,1.656l0.801,1.152c0.284,0.327,1.307,0.418,1.692,0.402c1.304,1.497,4.108,0.942,5.66,2.724
	l1.702-0.494c0.42,1.064,0.874,2.128,1.397,3.146c-0.796,2.399,0.746,5.828,3.111,6.742c0.152,0.394,0.317,1.084,0.174,1.507
	c1.201,1.266,2.355,2.589,1.919,4.518c0.474,0.667,0.968,1.623,1.096,2.443c0.117,0.083,3.342,1.305,3.523,1.338
	c1.523,1.577,1.908,4.065,3.438,5.37c0.921,0.357,2.451,0.71,3.337,0.054c0.299,1.094,0.442,4.409-0.535,5.062
	c-0.206,0.622-0.052,1.677,0.18,2.268c0.196,0.297,0.76,0.868,1.159,0.875c0.469,1.417,0.968,3.159,0.138,4.535
	c0.131,0.825,0.359,2.169,1.062,2.751c1.448-0.142,1.984,1.435,3.187,1.534c0.408,0.659,0.154,1.531,0.567,2.328
	c0.56,1.081,1.468,1.657,1.647,2.98c0.09,0.663-0.252,2.07-0.046,2.49l-0.62,1.143c0.114,1.833,0.835,7.002,0.108,8.259
	c0.114,0.684,0.664,3.595,1.057,4.065c-0.091,0.278-0.706,0.511-0.949,0.581c-0.23,0.337-0.395,1.059-0.232,1.453
	c0.227,0.254,0.628,0.457,0.968,0.483c0.115,0.58,1.289,1.744,1.706,2.112c0.073,2.324-0.903,5.997,1.45,7.316
	c0.422,0.84,0.161,1.939,0.759,2.667l-1.011,1.334c-0.295,1.257,1.392,3.896,1.244,4.91c-0.079,0.539-0.432,1.051-0.486,1.592
	c-0.098,0.985,0.394,2.093-0.213,3.021c0.578,1.466,0.346,3.971-0.013,5.488l-1.256,1.139l0.127,1.818
	c0.001,0.338-0.514,1.983-0.514,1.983c0.585,0.717,1.373,1.347,2.152,1.838c0.173,0.402,0.393,1.274,0.21,1.71l-1.086,0.551
	l0.844,2.329l-0.315,1.453l0.575,1.152l-0.788,1.172c-2.54-0.495-9.901-1.324-9.252,2.727l-0.948,0.835
	c0.235,0.673,1.216,1.081,1.88,1.021c0.281,0.583,0.61,1.177,1.014,1.686c-0.125,0.297-0.455,0.628-0.78,0.696
	c-0.28,0.74-0.865,4.536-0.617,5.004c-0.59,1.104-1.919,2.303-2.904,3.031l-0.17,0.754c0.53,1.965,2.524,3.023,3.487,4.646
	c0.43,0.156,0.999,0.341,1.467,0.263c0.828,0.803,1.68,1.112,2.651,1.643c0.198,0.775,0.848,2.131,1.532,2.616l1.24,0.905
	c-0.069,1.005,0.346,2.326,0.808,3.2l-0.171,0.753c-0.518,0.534-3.825,2.255-3.015,3.335c2.784,1.571,1.752,4.35,2.189,7.803
	c0.07,0.551,0.314,1.172,0.459,1.71c6.61,5.706,3.503,13.818,6.479,15.285c0.586-0.001,1.25-0.278,1.775-0.267
	c1.211,0.026,2.018,0.937,2.871,0.919c1.204,1.603,0.738,3.926,1.867,5.559l1.02,0.679c4.87-0.086,4.808,6.933,11.459,6.705
	c1.032,1.062,2.131,2.5,3.321,3.362l0.289,2.187l-0.751,0.582l-1.287,1.669l0.65,1.575c-0.055,1.176-1.019,1.435-0.466,3.132
	l-0.226,0.642l0.348,1.568c-0.23,0.613-1.142,1.283-1.726,1.5c-1.235,1.276,0.397,3.472,1.43,4.184l0.404,1.544
	c0.668,0.335,1.284,2.33,2.271,3.21l-0.234,1.23c1.588,2.073-1.655,2.509-0.068,5.238l-0.364,0.584
	c-0.092,0.572,0.824,2.23,1.112,2.697l-0.152,1.595l0.962,0.679c0.233,0.627,1.011,2.609,1.496,3.069
	c0.466,0.125,1.708,0.645,1.899,1.162c0.103,0.828-0.358,3.692-0.728,4.336c0.178,2.604,4.437,6.348,1.171,9.083l-1.355,0.183
	c-1.053,0.631-0.47,3.365,0.105,4.146l0.551,0.23c1.241-0.416,4.955-3.952,6.424-2.129c0.375-0.087,1.767-0.492,1.943-0.879
	c0.749-0.04,1.885,0.383,2.451,0.865l0.075,0.615c-0.403,0.592-1.187,1.14-1.808,1.467c0.264,1.156-0.16,2.706,0.164,3.67
	c-0.311,0.805-1.097,1.726-1.814,2.196c0.161,0.801-0.494,2.083-1.07,2.595c1.009,1.666,0.904,3.259,1.194,5.062
	c1.344,0.914,4.633,0.088,5.082,2.176c0.199,0.926,0.271,1.775,0.614,2.717l-0.282,2.487l-1.063,0.713
	c-0.601,0.729-0.203,2.854-0.016,3.768l-0.712,0.896c-0.021,0.211,1.37,3.892,1.574,4.312c1.629-0.361,2.361,1.319,3.353,2.166
	l0.171,1.615c0.93,0.966,2.948,1.534,4.239,1.453l0.702,1.44c-0.317,0.293-1,0.945-1.421,1.071
	c-0.807,2.016-0.574,4.712-1.617,6.451c0.767,1.651-0.796,3.775-1.965,4.836l-1.778,1.788c-0.733,1.071-1.75,1.945-2.664,2.859
	l0.351,0.541l-0.006,1.973c-0.454,0.462-0.861,0.919-1.421,1.251c-0.344,0.92-0.51,1.491-1.07,2.328
	c-1.11,0.205-3.444,0.605-4.495,0.345l-0.843-1.268c-0.61-0.444-1.907,0.092-2.487,0.341c-0.768,0.331-1.784,0.642-2.49,1.014
	c-0.215,0.113-1.819,3.605-1.851,3.96c-0.116,1.279,0.307,1.516,0.643,2.555c0.202,0.625-0.52,1.255-0.266,2.041l0.872,0.99
	c0.264,0.87-1.21,3.488-1.21,3.488c-0.568,0.62-1.009,1.802-1.208,2.595l-1.391,1.724c0,0-1.41-0.083-1.762,0.014
	c-0.702,0.273-1.613,1.182-1.808,1.916l-1.545,0.294c-0.467,2.69,1.477,6.849,0.508,8.995c-0.07,0.064-0.187,0.216-0.275,0.25
	c-1.4,0.544-3.578,1.521-4.702,2.535c-0.719,0.649-1.098,1.669-1.946,2.338c-0.107,0.449,0.268,1.251,0.512,1.599l-0.61,0.331
	c-0.542-0.196-1.308-0.435-1.897-0.378c-0.42,0.797-0.894,1.604-1.204,2.453c0.117,0.235,0.772,1.39,0.788,1.575
	c0.466,5.529-7.065,7.476-7.014,10.361c0.13,7.368-6.646,8.938-3.419,12.324l-0.502,0.946c0,0-2.732,1.487-3.311,1.348
	c-1.875,2.309-3.213,3.188-3.867,6.522c-0.916,0.417-1.837,0.946-2.625,1.575c-0.815-0.02-1.641-0.088-2.451,0.037
	c-0.377,0.409-1.503,1.343-2.126,1.301l-0.922,2.125l-0.706,0.01c-0.345,2.819-0.16,4.934-3.13,6.286
	c-0.311,0.074-2.711-1.545-2.963-1.423c-0.745-0.317-1.458-0.688-2.248-0.855c-1.727,0.363-1.385,3.694-2.838,4.822l0.567,3.271
	l1.165,1.335l-0.072,2.605l-0.17,1.007l-1.687,1.332l-0.204,1.939c-0.963,0.131-2.104-0.357-2.969,0.054
	c-0.235,0.463-1.082,1.922-1.608,2.115c-0.413,0.079-2.064,0.327-2.421,0.068l-0.432-0.73l-1.293-0.378
	c-1.688,0.387-2.056,4.017-2.667,5.373l-1.434,0.716c-0.255,0.051-0.769-0.317-0.958-0.456l-0.876-0.76
	c-0.316,0.381-1.259,1.169-1.821,1.078c-0.469,0.899-5.725,7.027-5.895,7.042l-1.109,1.223c0.005,0.591-0.736,1.841-1.224,2.176
	l-1.132,0.943l-0.414,0.25c1.701,3.029-1.289,5.606-0.322,7.445l0.814,1.406c0.69,0.272,1.227,0.387,2.001,0.517
	c0.027,0.436,1.007,1.605,1.007,1.605l-0.128,2.882l-0.581,0.584l1.303,2.305c0.303,0.243,0.896,1.629,0.896,1.629
	c-0.688,6.417-0.904,2.657-2.127,5.809l0.624,1.21l-0.896,2.541c-0.436,0.775-1.511,0.655-2.093,1.274
	c-1.028,1.095-3.081,5.833-3.478,7.563c-1.488,6.492-4.639,19.004-8.563,24.074l-5.051,7.153l-15.072,28.746H154.04l-79.452,153.333
	v264.272h217l40.18-8.469l11.772,11.772h13.276c2.249-0.725,3.858-7.028,4.488-8.847c0.379-1.097-0.94-6.705-0.259-7.58l3.166-1.061
	c-0.103-2.336-0.377-3.351-2.057-4.846c-0.159-2.344-0.277-4.291,0.939-6.435c-1.255-2.826-0.149-4.455,1.964-6.521
	c1.448-0.179,1.095-0.29,2.311,0.084l0.944,2.291l1.112,0.527l2.139-0.176l1.543-1.149c0.906,0.624,2.663,0.119,3.51-0.354
	l0.598,0.354l-0.256,2.292l3.339,3.345l0.601,4.143c-0.352,0.315-2.114,1.716-2.139,2.116c3.147,4.228,3.574,1.447,6.765,7.84
	c0.936,0.674,1.797,0.546,2.825,0.794c1.629,0.394,3.041,1.704,4.623,2.112c0.19,0.049,1.282,0,1.539,0l1.457-0.97l1.453-0.003
	c0.387,0.431,2.505,0.692,3.081,0.619c1.363,2.355,3.885,4.088,6.676,3.964c3.043-2.455,8.417,5.054,11.555,3.433l0.768,1.673
	l1.543-0.615c2.914-0.686,5.808-3.599,7.703-5.819v-1.146l0.427-0.176l0.515,0.439c0.48,1.702,0.573,3.471,1.539,5.025l1.883,0.97
	c1.275-0.554,5.255,1.114,5.905,2.024c0.302,1,1.091,2.224,1.283,3.176c0.065,0.327-0.211,2.306-0.258,2.673
	c-0.57,4.47,0.293,5.247,2.565,9.313c0.158,0.283,0.01,0.654,0.084,0.97l-1.112,1.149c-0.281,0.807,1.189,6.089,1.411,7.654
	l0.82,0.361c0.445-0.236,0.909-0.507,1.286-0.845c0.085-0.845,0.239-1.71,0.47-2.528h0.934c0.7,0.276,2.037,2.054,2.455,2.649
	l1.987-1.085c0.982,0.299,2.244,0.122,3.275,0.122c1.263-1.61-1.006-0.705,2.808-4.217c0.156-0.143,1.286-0.361,1.286-0.361
	c0.55,0.142,3.808,3.721,3.974,4.339c2.375,1.161,8.459-3.694,11.109-1.199c0.387,0.396,1.167,3.494,1.167,3.494
	c0.356,1.505,0.412,3.062,0.698,4.579l-0.586,0.841l-4.092,0.48c-0.908,0.77-0.981,2.202-2.69,3.494l0.936,1.808
	c0.984,0.402,2.258,0.026,3.155,0.604c1.159,0.747,2.03,2.137,3.505,2.41c0,2.447-2.456,6.872-2.458,6.988
	c0.423,0.326,1.014,1.35,1.283,1.808c0.126,1.372-0.433,4.027-0.938,5.302c0.613,0.293,1.326,1.161,1.519,1.808l-0.351,0.845
	l-2.691,1.808c0.076,0.895-0.43,4.944-1.17,5.181c-0.721-0.485-1.773-0.655-2.569-1.085c-0.727,0.248-1.1,0.996-1.874,1.085
	c-0.484-0.382-1.24-0.724-1.87-0.605c-0.578,0.503-0.567,2.36-0.466,3.015c-2.886,3.252-2.082,3.281-2.576,7.471
	c-1.034,0.778-2.886,2.544-2.575,3.978c0.423,1.958,5.895,8.083,7.477,7.955l0.817-1.206c0.552,0.365,2.919,2.534,2.919,2.534
	c0.574,0.897,0.596,1.845,1.286,2.771c0.826,1.109,1.737,1.498,2.568,2.855c0.182,0.298,0.315,0.45,0.467,0.764
	c1.268,2.617,1.022,4.507,2.684,7.354c0.175-0.111,0.702-1.085,0.702-1.085c0.707-0.195,2.833-0.914,3.271-1.568l-0.466-1.446
	l0.702-0.602c1.754,0.347,5.796-1.415,5.844-3.491l0.004-1.207c0,0,2.491-0.432,2.92-0.963c4.287-5.298-2.386-6.299,2.581-13.98
	l2.339-0.963l1.401,0.483c0.334,0.616,1.035,1.103,1.752,1.084l0.702-0.841c0.983-0.155,1.917,0.355,3.039,0.122
	c-0.758-2.304,0.943-2.691,2.808-2.889l2.926-5.062c3.107,0.2,7.191,0.038,10.167,0.733c0,0,0.72-1.157,0.938-1.568
	c0.472-0.245,0.939-0.509,1.347-0.85c1.832-1.531,4.267-3.262,6.567-3.884c0.544-0.147,3.077-1.403,3.077-1.403
	c0.613,0.908,2.389,2.626,3.505,2.656l0.935,1.207c0.072,1.041,0.235,2.144,0.58,3.132c1.144,0.556,2.34-0.245,3.507,0.125
	c0,0-0.215,1.938,0.096,2.734l0.787,0.818c-0.203,1.119,0.096,3.876,0.096,3.876c0.226,1.833,0.855,3.658,2.864,4.184
	c0.285,0.969,0.493,1.967,0.686,2.957c0.493,0.146,0.851,0.251,1.384,0.206l0.692-0.612c0.632-1.712-0.333-2.193,1.096-3.771
	c0,0,2.607-0.281,3.76-1.22c0.499,0.355,1.1,0.62,1.676,0.818c2.132,2.546,2.174,6.273,6.914,7.455l0.495-0.611
	c-1.292-2.468-1.909-5.016,0.899-6.833l1.978-0.199l2.081-2.139c0.245-0.625,0.225-1.479,0.302-2.143
	c2.044-2.022,2.696-2.388,5.639-2.44c0.096-1.112,1.045-2.005,1.883-2.649l-0.59-2.957c-0.69-0.543-1.47-1.354-1.873-2.146
	c-0.016-0.52,1.06-3.476,0.994-4.383l1.486-0.916c-0.372-2.011,0.31-4.636,2.579-5.197c2.833-7.318,11-7.771,15.066-17.413
	c-0.299-1.154-0.559-2.327-0.764-3.501c-0.915-5.22-0.125-4.847,1.27-8.779L687.331,1090.478z" fill="none" stroke="#33ff33" stroke-width="6" opacity="0.65"/>
</svg>